<svg xmlns="http://www.w3.org/2000/svg" xmlns:xlink="http://www.w3.org/1999/xlink" version="1.1" class="marks" width="1162" height="1087" viewBox="0 0 1162 1087"><g fill="none" stroke-miterlimit="10" transform="translate(110,93)"><g class="mark-group role-frame root" role="graphics-object" aria-roledescription="group mark container"><g transform="translate(0,0)"><path class="background" aria-hidden="true" d="M0,0h900v900h-900Z"/><g><g class="mark-group role-axis" role="graphics-symbol" aria-roledescription="axis" aria-label="X-axis titled 'observed_features' for a linear scale with values from 0 to 7,000"><g transform="translate(0.5,900.5)"><path class="background" aria-hidden="true" d="M0,0h0v0h0Z" pointer-events="none"/><g><g class="mark-rule role-axis-grid" pointer-events="none"><line transform="translate(0,0)" x2="0" y2="-900" stroke="#ddd" stroke-width="1" opacity="1"/><line transform="translate(129,0)" x2="0" y2="-900" stroke="#ddd" stroke-width="1" opacity="1"/><line transform="translate(257,0)" x2="0" y2="-900" stroke="#ddd" stroke-width="1" opacity="1"/><line transform="translate(386,0)" x2="0" y2="-900" stroke="#ddd" stroke-width="1" opacity="1"/><line transform="translate(514,0)" x2="0" y2="-900" stroke="#ddd" stroke-width="1" opacity="1"/><line transform="translate(643,0)" x2="0" y2="-900" stroke="#ddd" stroke-width="1" opacity="1"/><line transform="translate(771,0)" x2="0" y2="-900" stroke="#ddd" stroke-width="1" opacity="1"/><line transform="translate(900,0)" x2="0" y2="-900" stroke="#ddd" stroke-width="1" opacity="1"/></g><g class="mark-rule role-axis-tick" pointer-events="none"><line transform="translate(0,0)" x2="0" y2="5" stroke="#888" stroke-width="1" opacity="1"/><line transform="translate(129,0)" x2="0" y2="5" stroke="#888" stroke-width="1" opacity="1"/><line transform="translate(257,0)" x2="0" y2="5" stroke="#888" stroke-width="1" opacity="1"/><line transform="translate(386,0)" x2="0" y2="5" stroke="#888" stroke-width="1" opacity="1"/><line transform="translate(514,0)" x2="0" y2="5" stroke="#888" stroke-width="1" opacity="1"/><line transform="translate(643,0)" x2="0" y2="5" stroke="#888" stroke-width="1" opacity="1"/><line transform="translate(771,0)" x2="0" y2="5" stroke="#888" stroke-width="1" opacity="1"/><line transform="translate(900,0)" x2="0" y2="5" stroke="#888" stroke-width="1" opacity="1"/></g><g class="mark-text role-axis-label" pointer-events="none"><text text-anchor="middle" transform="translate(0,33)" font-family="sans-serif" font-size="16px" fill="#000" opacity="1">0</text><text text-anchor="middle" transform="translate(128.57142857142856,33)" font-family="sans-serif" font-size="16px" fill="#000" opacity="1">1,000</text><text text-anchor="middle" transform="translate(257.1428571428571,33)" font-family="sans-serif" font-size="16px" fill="#000" opacity="1">2,000</text><text text-anchor="middle" transform="translate(385.71428571428567,33)" font-family="sans-serif" font-size="16px" fill="#000" opacity="1">3,000</text><text text-anchor="middle" transform="translate(514.2857142857142,33)" font-family="sans-serif" font-size="16px" fill="#000" opacity="1">4,000</text><text text-anchor="middle" transform="translate(642.8571428571429,33)" font-family="sans-serif" font-size="16px" fill="#000" opacity="1">5,000</text><text text-anchor="middle" transform="translate(771.4285714285713,33)" font-family="sans-serif" font-size="16px" fill="#000" opacity="1">6,000</text><text text-anchor="middle" transform="translate(900,33)" font-family="sans-serif" font-size="16px" fill="#000" opacity="1">7,000</text></g><g class="mark-rule role-axis-domain" pointer-events="none"><line transform="translate(0,0)" x2="900" y2="0" stroke="#888" stroke-width="1" opacity="1"/></g><g class="mark-text role-axis-title" pointer-events="none"><text text-anchor="middle" transform="translate(450,70)" font-family="sans-serif" font-size="18px" font-weight="bold" fill="#000" opacity="1">observed_features</text></g></g><path class="foreground" aria-hidden="true" d="" pointer-events="none" display="none"/></g></g><g class="mark-group role-axis" role="graphics-symbol" aria-roledescription="axis" aria-label="Y-axis titled 'jaccard Axis 1 (55%)' for a linear scale with values from −0.5 to 0.4"><g transform="translate(0.5,0.5)"><path class="background" aria-hidden="true" d="M0,0h0v0h0Z" pointer-events="none"/><g><g class="mark-rule role-axis-grid" pointer-events="none"><line transform="translate(0,900)" x2="900" y2="0" stroke="#ddd" stroke-width="1" opacity="1"/><line transform="translate(0,800)" x2="900" y2="0" stroke="#ddd" stroke-width="1" opacity="1"/><line transform="translate(0,700)" x2="900" y2="0" stroke="#ddd" stroke-width="1" opacity="1"/><line transform="translate(0,600)" x2="900" y2="0" stroke="#ddd" stroke-width="1" opacity="1"/><line transform="translate(0,500)" x2="900" y2="0" stroke="#ddd" stroke-width="1" opacity="1"/><line transform="translate(0,400)" x2="900" y2="0" stroke="#ddd" stroke-width="1" opacity="1"/><line transform="translate(0,300)" x2="900" y2="0" stroke="#ddd" stroke-width="1" opacity="1"/><line transform="translate(0,200)" x2="900" y2="0" stroke="#ddd" stroke-width="1" opacity="1"/><line transform="translate(0,100)" x2="900" y2="0" stroke="#ddd" stroke-width="1" opacity="1"/><line transform="translate(0,0)" x2="900" y2="0" stroke="#ddd" stroke-width="1" opacity="1"/></g><g class="mark-rule role-axis-tick" pointer-events="none"><line transform="translate(0,900)" x2="-5" y2="0" stroke="#888" stroke-width="1" opacity="1"/><line transform="translate(0,800)" x2="-5" y2="0" stroke="#888" stroke-width="1" opacity="1"/><line transform="translate(0,700)" x2="-5" y2="0" stroke="#888" stroke-width="1" opacity="1"/><line transform="translate(0,600)" x2="-5" y2="0" stroke="#888" stroke-width="1" opacity="1"/><line transform="translate(0,500)" x2="-5" y2="0" stroke="#888" stroke-width="1" opacity="1"/><line transform="translate(0,400)" x2="-5" y2="0" stroke="#888" stroke-width="1" opacity="1"/><line transform="translate(0,300)" x2="-5" y2="0" stroke="#888" stroke-width="1" opacity="1"/><line transform="translate(0,200)" x2="-5" y2="0" stroke="#888" stroke-width="1" opacity="1"/><line transform="translate(0,100)" x2="-5" y2="0" stroke="#888" stroke-width="1" opacity="1"/><line transform="translate(0,0)" x2="-5" y2="0" stroke="#888" stroke-width="1" opacity="1"/></g><g class="mark-text role-axis-label" pointer-events="none"><text text-anchor="end" transform="translate(-20,905)" font-family="sans-serif" font-size="16px" fill="#000" opacity="1">−0.5</text><text text-anchor="end" transform="translate(-20,805)" font-family="sans-serif" font-size="16px" fill="#000" opacity="1">−0.4</text><text text-anchor="end" transform="translate(-20,705)" font-family="sans-serif" font-size="16px" fill="#000" opacity="1">−0.3</text><text text-anchor="end" transform="translate(-20,605.0000000000001)" font-family="sans-serif" font-size="16px" fill="#000" opacity="1">−0.2</text><text text-anchor="end" transform="translate(-20,505)" font-family="sans-serif" font-size="16px" fill="#000" opacity="1">−0.1</text><text text-anchor="end" transform="translate(-20,405)" font-family="sans-serif" font-size="16px" fill="#000" opacity="1">0.0</text><text text-anchor="end" transform="translate(-20,305.00000000000006)" font-family="sans-serif" font-size="16px" fill="#000" opacity="1">0.1</text><text text-anchor="end" transform="translate(-20,205.00000000000009)" font-family="sans-serif" font-size="16px" fill="#000" opacity="1">0.2</text><text text-anchor="end" transform="translate(-20,104.99999999999994)" font-family="sans-serif" font-size="16px" fill="#000" opacity="1">0.3</text><text text-anchor="end" transform="translate(-20,5)" font-family="sans-serif" font-size="16px" fill="#000" opacity="1">0.4</text></g><g class="mark-rule role-axis-domain" pointer-events="none"><line transform="translate(0,900)" x2="0" y2="-900" stroke="#888" stroke-width="1" opacity="1"/></g><g class="mark-text role-axis-title" pointer-events="none"><text text-anchor="middle" transform="translate(-71.5859375,450) rotate(-90) translate(0,-4)" font-family="sans-serif" font-size="18px" font-weight="bold" fill="#000" opacity="1">jaccard Axis 1 (55%)</text></g></g><path class="foreground" aria-hidden="true" d="" pointer-events="none" display="none"/></g></g><g class="mark-symbol role-mark marks" role="graphics-symbol" aria-roledescription="symbol mark container"><path transform="translate(635.7857142857142,64.01343350000009)" d="M6.123724356957945,0A6.123724356957945,6.123724356957945,0,1,1,-6.123724356957945,0A6.123724356957945,6.123724356957945,0,1,1,6.123724356957945,0" fill="rgb(237, 121, 83)" stroke="black" stroke-width="1.5"/><path transform="translate(690.8785714285715,322.40027399999997)" d="M6.123724356957945,0A6.123724356957945,6.123724356957945,0,1,1,-6.123724356957945,0A6.123724356957945,6.123724356957945,0,1,1,6.123724356957945,0" fill="rgb(156, 23, 158)" stroke="black" stroke-width="1.5"/><path transform="translate(508.24285714285713,78.19737899999998)" d="M6.123724356957945,0A6.123724356957945,6.123724356957945,0,1,1,-6.123724356957945,0A6.123724356957945,6.123724356957945,0,1,1,6.123724356957945,0" fill="rgb(237, 121, 83)" stroke="black" stroke-width="1.5"/><path transform="translate(725.0142857142857,269.37961340000004)" d="M6.123724356957945,0A6.123724356957945,6.123724356957945,0,1,1,-6.123724356957945,0A6.123724356957945,6.123724356957945,0,1,1,6.123724356957945,0" fill="rgb(156, 23, 158)" stroke="black" stroke-width="1.5"/><path transform="translate(575.6142857142858,29.40559750000007)" d="M6.123724356957945,0A6.123724356957945,6.123724356957945,0,1,1,-6.123724356957945,0A6.123724356957945,6.123724356957945,0,1,1,6.123724356957945,0" fill="rgb(237, 121, 83)" stroke="black" stroke-width="1.5"/><path transform="translate(824.0142857142857,312.35419410000003)" d="M6.123724356957945,0A6.123724356957945,6.123724356957945,0,1,1,-6.123724356957945,0A6.123724356957945,6.123724356957945,0,1,1,6.123724356957945,0" fill="rgb(156, 23, 158)" stroke="black" stroke-width="1.5"/><path transform="translate(527.9142857142857,87.67699309999998)" d="M6.123724356957945,0A6.123724356957945,6.123724356957945,0,1,1,-6.123724356957945,0A6.123724356957945,6.123724356957945,0,1,1,6.123724356957945,0" fill="rgb(237, 121, 83)" stroke="black" stroke-width="1.5"/><path transform="translate(802.6714285714286,306.9805873)" d="M6.123724356957945,0A6.123724356957945,6.123724356957945,0,1,1,-6.123724356957945,0A6.123724356957945,6.123724356957945,0,1,1,6.123724356957945,0" fill="rgb(156, 23, 158)" stroke="black" stroke-width="1.5"/><path transform="translate(846.5142857142857,99.94067150000005)" d="M6.123724356957945,0A6.123724356957945,6.123724356957945,0,1,1,-6.123724356957945,0A6.123724356957945,6.123724356957945,0,1,1,6.123724356957945,0" fill="rgb(237, 121, 83)" stroke="black" stroke-width="1.5"/><path transform="translate(829.5428571428571,325.72588099999996)" d="M6.123724356957945,0A6.123724356957945,6.123724356957945,0,1,1,-6.123724356957945,0A6.123724356957945,6.123724356957945,0,1,1,6.123724356957945,0" fill="rgb(156, 23, 158)" stroke="black" stroke-width="1.5"/><path transform="translate(427.24285714285713,834.4120121)" d="M6.123724356957945,0A6.123724356957945,6.123724356957945,0,1,1,-6.123724356957945,0A6.123724356957945,6.123724356957945,0,1,1,6.123724356957945,0" fill="rgb(156, 23, 158)" stroke="black" stroke-width="1.5"/><path transform="translate(525.6,822.9375237)" d="M6.123724356957945,0A6.123724356957945,6.123724356957945,0,1,1,-6.123724356957945,0A6.123724356957945,6.123724356957945,0,1,1,6.123724356957945,0" fill="rgb(156, 23, 158)" stroke="black" stroke-width="1.5"/><path transform="translate(545.2714285714286,848.2989521999999)" d="M6.123724356957945,0A6.123724356957945,6.123724356957945,0,1,1,-6.123724356957945,0A6.123724356957945,6.123724356957945,0,1,1,6.123724356957945,0" fill="rgb(156, 23, 158)" stroke="black" stroke-width="1.5"/><path transform="translate(526.7571428571429,800.8824485)" d="M6.123724356957945,0A6.123724356957945,6.123724356957945,0,1,1,-6.123724356957945,0A6.123724356957945,6.123724356957945,0,1,1,6.123724356957945,0" fill="rgb(156, 23, 158)" stroke="black" stroke-width="1.5"/><path transform="translate(729.5142857142857,797.3944391)" d="M6.123724356957945,0A6.123724356957945,6.123724356957945,0,1,1,-6.123724356957945,0A6.123724356957945,6.123724356957945,0,1,1,6.123724356957945,0" fill="rgb(156, 23, 158)" stroke="black" stroke-width="1.5"/></g><g class="mark-group role-legend" role="graphics-symbol" aria-roledescription="legend" aria-label="Symbol legend titled 'sample_type' for fill color with 2 values: duckweed, water"><g transform="translate(935,0)"><path class="background" aria-hidden="true" d="M0,0h97v54h-97Z" pointer-events="none"/><g><g class="mark-group role-legend-entry"><g transform="translate(0,21)"><path class="background" aria-hidden="true" d="M0,0h0v0h0Z" pointer-events="none"/><g><g class="mark-group role-scope" role="graphics-object" aria-roledescription="group mark container"><g transform="translate(0,0)"><path class="background" aria-hidden="true" d="M0,0h81.041015625v14.623724356957945h-81.041015625Z" pointer-events="none" opacity="1"/><g><g class="mark-symbol role-legend-symbol legendSymbol" pointer-events="none"><path transform="translate(7,7)" d="M6.123724356957945,0A6.123724356957945,6.123724356957945,0,1,1,-6.123724356957945,0A6.123724356957945,6.123724356957945,0,1,1,6.123724356957945,0" fill="rgb(156, 23, 158)" stroke="black" stroke-width="1.5" opacity="1"/></g><g class="mark-text role-legend-label legendLabel" pointer-events="none"><text text-anchor="start" transform="translate(18,11)" font-family="sans-serif" font-size="14px" fill="#000" opacity="1">duckweed</text></g></g><path class="foreground" aria-hidden="true" d="" pointer-events="none" display="none"/></g><g transform="translate(0,18)"><path class="background" aria-hidden="true" d="M0,0h81.041015625v14.623724356957943h-81.041015625Z" pointer-events="none" opacity="1"/><g><g class="mark-symbol role-legend-symbol legendSymbol" pointer-events="none"><path transform="translate(7,7)" d="M6.123724356957945,0A6.123724356957945,6.123724356957945,0,1,1,-6.123724356957945,0A6.123724356957945,6.123724356957945,0,1,1,6.123724356957945,0" fill="rgb(237, 121, 83)" stroke="black" stroke-width="1.5" opacity="1"/></g><g class="mark-text role-legend-label legendLabel" pointer-events="none"><text text-anchor="start" transform="translate(18,11)" font-family="sans-serif" font-size="14px" fill="#000" opacity="1">water</text></g></g><path class="foreground" aria-hidden="true" d="" pointer-events="none" display="none"/></g></g></g><path class="foreground" aria-hidden="true" d="" pointer-events="none" display="none"/></g></g><g class="mark-text role-legend-title" pointer-events="none"><text text-anchor="start" transform="translate(0,13)" font-family="sans-serif" font-size="16px" font-weight="bold" fill="#000" opacity="1">sample_type</text></g></g><path class="foreground" aria-hidden="true" d="" pointer-events="none" display="none"/></g></g><g class="mark-group role-title"><g transform="translate(-89.5859375,-73)"><path class="background" aria-hidden="true" d="M0,0h0v0h0Z" pointer-events="none"/><g><g class="mark-text role-title-text" role="graphics-symbol" aria-roledescription="title" aria-label="Title text 'observed features v. jaccard'" pointer-events="none"><text text-anchor="start" transform="translate(0,16)" font-family="sans-serif" font-size="20px" font-weight="bold" fill="#000" opacity="1">observed features v. jaccard</text></g><g class="mark-text role-title-subtitle" role="graphics-symbol" aria-roledescription="subtitle" aria-label="Subtitle text ' '" pointer-events="none"><text text-anchor="start" transform="translate(0,59)" font-family="sans-serif" font-size="12px" fill="#000" opacity="1"/></g></g><path class="foreground" aria-hidden="true" d="" pointer-events="none" display="none"/></g></g></g><path class="foreground" aria-hidden="true" d="" display="none"/></g></g></g></svg>