<svg xmlns="http://www.w3.org/2000/svg" xmlns:xlink="http://www.w3.org/1999/xlink" version="1.1" class="marks" width="1162" height="1087" viewBox="0 0 1162 1087"><g fill="none" stroke-miterlimit="10" transform="translate(110,93)"><g class="mark-group role-frame root" role="graphics-object" aria-roledescription="group mark container"><g transform="translate(0,0)"><path class="background" aria-hidden="true" d="M0,0h900v900h-900Z"/><g><g class="mark-group role-axis" role="graphics-symbol" aria-roledescription="axis" aria-label="X-axis titled 'shannon_entropy' for a linear scale with values from 0 to 12"><g transform="translate(0.5,900.5)"><path class="background" aria-hidden="true" d="M0,0h0v0h0Z" pointer-events="none"/><g><g class="mark-rule role-axis-grid" pointer-events="none"><line transform="translate(0,0)" x2="0" y2="-900" stroke="#ddd" stroke-width="1" opacity="1"/><line transform="translate(150,0)" x2="0" y2="-900" stroke="#ddd" stroke-width="1" opacity="1"/><line transform="translate(300,0)" x2="0" y2="-900" stroke="#ddd" stroke-width="1" opacity="1"/><line transform="translate(450,0)" x2="0" y2="-900" stroke="#ddd" stroke-width="1" opacity="1"/><line transform="translate(600,0)" x2="0" y2="-900" stroke="#ddd" stroke-width="1" opacity="1"/><line transform="translate(750,0)" x2="0" y2="-900" stroke="#ddd" stroke-width="1" opacity="1"/><line transform="translate(900,0)" x2="0" y2="-900" stroke="#ddd" stroke-width="1" opacity="1"/></g><g class="mark-rule role-axis-tick" pointer-events="none"><line transform="translate(0,0)" x2="0" y2="5" stroke="#888" stroke-width="1" opacity="1"/><line transform="translate(150,0)" x2="0" y2="5" stroke="#888" stroke-width="1" opacity="1"/><line transform="translate(300,0)" x2="0" y2="5" stroke="#888" stroke-width="1" opacity="1"/><line transform="translate(450,0)" x2="0" y2="5" stroke="#888" stroke-width="1" opacity="1"/><line transform="translate(600,0)" x2="0" y2="5" stroke="#888" stroke-width="1" opacity="1"/><line transform="translate(750,0)" x2="0" y2="5" stroke="#888" stroke-width="1" opacity="1"/><line transform="translate(900,0)" x2="0" y2="5" stroke="#888" stroke-width="1" opacity="1"/></g><g class="mark-text role-axis-label" pointer-events="none"><text text-anchor="middle" transform="translate(0,33)" font-family="sans-serif" font-size="16px" fill="#000" opacity="1">0</text><text text-anchor="middle" transform="translate(150,33)" font-family="sans-serif" font-size="16px" fill="#000" opacity="1">2</text><text text-anchor="middle" transform="translate(300,33)" font-family="sans-serif" font-size="16px" fill="#000" opacity="1">4</text><text text-anchor="middle" transform="translate(450,33)" font-family="sans-serif" font-size="16px" fill="#000" opacity="1">6</text><text text-anchor="middle" transform="translate(600,33)" font-family="sans-serif" font-size="16px" fill="#000" opacity="1">8</text><text text-anchor="middle" transform="translate(750,33)" font-family="sans-serif" font-size="16px" fill="#000" opacity="1">10</text><text text-anchor="middle" transform="translate(900,33)" font-family="sans-serif" font-size="16px" fill="#000" opacity="1">12</text></g><g class="mark-rule role-axis-domain" pointer-events="none"><line transform="translate(0,0)" x2="900" y2="0" stroke="#888" stroke-width="1" opacity="1"/></g><g class="mark-text role-axis-title" pointer-events="none"><text text-anchor="middle" transform="translate(450,70)" font-family="sans-serif" font-size="18px" font-weight="bold" fill="#000" opacity="1">shannon_entropy</text></g></g><path class="foreground" aria-hidden="true" d="" pointer-events="none" display="none"/></g></g><g class="mark-group role-axis" role="graphics-symbol" aria-roledescription="axis" aria-label="Y-axis titled 'braycurtis Axis 1 (81%)' for a linear scale with values from −0.4 to 0.6"><g transform="translate(0.5,0.5)"><path class="background" aria-hidden="true" d="M0,0h0v0h0Z" pointer-events="none"/><g><g class="mark-rule role-axis-grid" pointer-events="none"><line transform="translate(0,900)" x2="900" y2="0" stroke="#ddd" stroke-width="1" opacity="1"/><line transform="translate(0,810)" x2="900" y2="0" stroke="#ddd" stroke-width="1" opacity="1"/><line transform="translate(0,720)" x2="900" y2="0" stroke="#ddd" stroke-width="1" opacity="1"/><line transform="translate(0,630)" x2="900" y2="0" stroke="#ddd" stroke-width="1" opacity="1"/><line transform="translate(0,540)" x2="900" y2="0" stroke="#ddd" stroke-width="1" opacity="1"/><line transform="translate(0,450)" x2="900" y2="0" stroke="#ddd" stroke-width="1" opacity="1"/><line transform="translate(0,360)" x2="900" y2="0" stroke="#ddd" stroke-width="1" opacity="1"/><line transform="translate(0,270)" x2="900" y2="0" stroke="#ddd" stroke-width="1" opacity="1"/><line transform="translate(0,180)" x2="900" y2="0" stroke="#ddd" stroke-width="1" opacity="1"/><line transform="translate(0,90)" x2="900" y2="0" stroke="#ddd" stroke-width="1" opacity="1"/><line transform="translate(0,0)" x2="900" y2="0" stroke="#ddd" stroke-width="1" opacity="1"/></g><g class="mark-rule role-axis-tick" pointer-events="none"><line transform="translate(0,900)" x2="-5" y2="0" stroke="#888" stroke-width="1" opacity="1"/><line transform="translate(0,810)" x2="-5" y2="0" stroke="#888" stroke-width="1" opacity="1"/><line transform="translate(0,720)" x2="-5" y2="0" stroke="#888" stroke-width="1" opacity="1"/><line transform="translate(0,630)" x2="-5" y2="0" stroke="#888" stroke-width="1" opacity="1"/><line transform="translate(0,540)" x2="-5" y2="0" stroke="#888" stroke-width="1" opacity="1"/><line transform="translate(0,450)" x2="-5" y2="0" stroke="#888" stroke-width="1" opacity="1"/><line transform="translate(0,360)" x2="-5" y2="0" stroke="#888" stroke-width="1" opacity="1"/><line transform="translate(0,270)" x2="-5" y2="0" stroke="#888" stroke-width="1" opacity="1"/><line transform="translate(0,180)" x2="-5" y2="0" stroke="#888" stroke-width="1" opacity="1"/><line transform="translate(0,90)" x2="-5" y2="0" stroke="#888" stroke-width="1" opacity="1"/><line transform="translate(0,0)" x2="-5" y2="0" stroke="#888" stroke-width="1" opacity="1"/></g><g class="mark-text role-axis-label" pointer-events="none"><text text-anchor="end" transform="translate(-20,905)" font-family="sans-serif" font-size="16px" fill="#000" opacity="1">−0.4</text><text text-anchor="end" transform="translate(-20,814.9999999999999)" font-family="sans-serif" font-size="16px" fill="#000" opacity="1">−0.3</text><text text-anchor="end" transform="translate(-20,725)" font-family="sans-serif" font-size="16px" fill="#000" opacity="1">−0.2</text><text text-anchor="end" transform="translate(-20,635)" font-family="sans-serif" font-size="16px" fill="#000" opacity="1">−0.1</text><text text-anchor="end" transform="translate(-20,545)" font-family="sans-serif" font-size="16px" fill="#000" opacity="1">0.0</text><text text-anchor="end" transform="translate(-20,455)" font-family="sans-serif" font-size="16px" fill="#000" opacity="1">0.1</text><text text-anchor="end" transform="translate(-20,364.99999999999994)" font-family="sans-serif" font-size="16px" fill="#000" opacity="1">0.2</text><text text-anchor="end" transform="translate(-20,275.00000000000006)" font-family="sans-serif" font-size="16px" fill="#000" opacity="1">0.3</text><text text-anchor="end" transform="translate(-20,184.99999999999997)" font-family="sans-serif" font-size="16px" fill="#000" opacity="1">0.4</text><text text-anchor="end" transform="translate(-20,94.99999999999999)" font-family="sans-serif" font-size="16px" fill="#000" opacity="1">0.5</text><text text-anchor="end" transform="translate(-20,5)" font-family="sans-serif" font-size="16px" fill="#000" opacity="1">0.6</text></g><g class="mark-rule role-axis-domain" pointer-events="none"><line transform="translate(0,900)" x2="0" y2="-900" stroke="#888" stroke-width="1" opacity="1"/></g><g class="mark-text role-axis-title" pointer-events="none"><text text-anchor="middle" transform="translate(-71.5859375,450) rotate(-90) translate(0,-4)" font-family="sans-serif" font-size="18px" font-weight="bold" fill="#000" opacity="1">braycurtis Axis 1 (81%)</text></g></g><path class="foreground" aria-hidden="true" d="" pointer-events="none" display="none"/></g></g><g class="mark-symbol role-mark marks" role="graphics-symbol" aria-roledescription="symbol mark container"><path transform="translate(841.3373269725,83.14545419999995)" d="M6.123724356957945,0A6.123724356957945,6.123724356957945,0,1,1,-6.123724356957945,0A6.123724356957945,6.123724356957945,0,1,1,6.123724356957945,0" fill="rgb(237, 121, 83)" stroke="black" stroke-width="1.5"/><path transform="translate(764.09746989,785.38605363)" d="M6.123724356957945,0A6.123724356957945,6.123724356957945,0,1,1,-6.123724356957945,0A6.123724356957945,6.123724356957945,0,1,1,6.123724356957945,0" fill="rgb(156, 23, 158)" stroke="black" stroke-width="1.5"/><path transform="translate(789.7312314525001,15.865913249999942)" d="M6.123724356957945,0A6.123724356957945,6.123724356957945,0,1,1,-6.123724356957945,0A6.123724356957945,6.123724356957945,0,1,1,6.123724356957945,0" fill="rgb(237, 121, 83)" stroke="black" stroke-width="1.5"/><path transform="translate(796.98348264,712.4738532299999)" d="M6.123724356957945,0A6.123724356957945,6.123724356957945,0,1,1,-6.123724356957945,0A6.123724356957945,6.123724356957945,0,1,1,6.123724356957945,0" fill="rgb(156, 23, 158)" stroke="black" stroke-width="1.5"/><path transform="translate(832.1421101849999,73.92735251999999)" d="M6.123724356957945,0A6.123724356957945,6.123724356957945,0,1,1,-6.123724356957945,0A6.123724356957945,6.123724356957945,0,1,1,6.123724356957945,0" fill="rgb(237, 121, 83)" stroke="black" stroke-width="1.5"/><path transform="translate(785.553398925,733.53405591)" d="M6.123724356957945,0A6.123724356957945,6.123724356957945,0,1,1,-6.123724356957945,0A6.123724356957945,6.123724356957945,0,1,1,6.123724356957945,0" fill="rgb(156, 23, 158)" stroke="black" stroke-width="1.5"/><path transform="translate(765.7982223375001,46.078712819999936)" d="M6.123724356957945,0A6.123724356957945,6.123724356957945,0,1,1,-6.123724356957945,0A6.123724356957945,6.123724356957945,0,1,1,6.123724356957945,0" fill="rgb(237, 121, 83)" stroke="black" stroke-width="1.5"/><path transform="translate(797.5825095225,747.89937342)" d="M6.123724356957945,0A6.123724356957945,6.123724356957945,0,1,1,-6.123724356957945,0A6.123724356957945,6.123724356957945,0,1,1,6.123724356957945,0" fill="rgb(156, 23, 158)" stroke="black" stroke-width="1.5"/><path transform="translate(866.76128217,240.93529101)" d="M6.123724356957945,0A6.123724356957945,6.123724356957945,0,1,1,-6.123724356957945,0A6.123724356957945,6.123724356957945,0,1,1,6.123724356957945,0" fill="rgb(237, 121, 83)" stroke="black" stroke-width="1.5"/><path transform="translate(808.9303922325001,744.1303925699999)" d="M6.123724356957945,0A6.123724356957945,6.123724356957945,0,1,1,-6.123724356957945,0A6.123724356957945,6.123724356957945,0,1,1,6.123724356957945,0" fill="rgb(156, 23, 158)" stroke="black" stroke-width="1.5"/><path transform="translate(790.521999195,694.91472012)" d="M6.123724356957945,0A6.123724356957945,6.123724356957945,0,1,1,-6.123724356957945,0A6.123724356957945,6.123724356957945,0,1,1,6.123724356957945,0" fill="rgb(156, 23, 158)" stroke="black" stroke-width="1.5"/><path transform="translate(784.95381894,827.15797548)" d="M6.123724356957945,0A6.123724356957945,6.123724356957945,0,1,1,-6.123724356957945,0A6.123724356957945,6.123724356957945,0,1,1,6.123724356957945,0" fill="rgb(156, 23, 158)" stroke="black" stroke-width="1.5"/><path transform="translate(829.9358875725001,794.42830494)" d="M6.123724356957945,0A6.123724356957945,6.123724356957945,0,1,1,-6.123724356957945,0A6.123724356957945,6.123724356957945,0,1,1,6.123724356957945,0" fill="rgb(156, 23, 158)" stroke="black" stroke-width="1.5"/><path transform="translate(799.493863485,775.8694531799999)" d="M6.123724356957945,0A6.123724356957945,6.123724356957945,0,1,1,-6.123724356957945,0A6.123724356957945,6.123724356957945,0,1,1,6.123724356957945,0" fill="rgb(156, 23, 158)" stroke="black" stroke-width="1.5"/><path transform="translate(804.4068961725,824.25309363)" d="M6.123724356957945,0A6.123724356957945,6.123724356957945,0,1,1,-6.123724356957945,0A6.123724356957945,6.123724356957945,0,1,1,6.123724356957945,0" fill="rgb(156, 23, 158)" stroke="black" stroke-width="1.5"/></g><g class="mark-group role-legend" role="graphics-symbol" aria-roledescription="legend" aria-label="Symbol legend titled 'sample_type' for fill color with 2 values: duckweed, water"><g transform="translate(935,0)"><path class="background" aria-hidden="true" d="M0,0h97v54h-97Z" pointer-events="none"/><g><g class="mark-group role-legend-entry"><g transform="translate(0,21)"><path class="background" aria-hidden="true" d="M0,0h0v0h0Z" pointer-events="none"/><g><g class="mark-group role-scope" role="graphics-object" aria-roledescription="group mark container"><g transform="translate(0,0)"><path class="background" aria-hidden="true" d="M0,0h81.041015625v14.623724356957945h-81.041015625Z" pointer-events="none" opacity="1"/><g><g class="mark-symbol role-legend-symbol legendSymbol" pointer-events="none"><path transform="translate(7,7)" d="M6.123724356957945,0A6.123724356957945,6.123724356957945,0,1,1,-6.123724356957945,0A6.123724356957945,6.123724356957945,0,1,1,6.123724356957945,0" fill="rgb(156, 23, 158)" stroke="black" stroke-width="1.5" opacity="1"/></g><g class="mark-text role-legend-label legendLabel" pointer-events="none"><text text-anchor="start" transform="translate(18,11)" font-family="sans-serif" font-size="14px" fill="#000" opacity="1">duckweed</text></g></g><path class="foreground" aria-hidden="true" d="" pointer-events="none" display="none"/></g><g transform="translate(0,18)"><path class="background" aria-hidden="true" d="M0,0h81.041015625v14.623724356957943h-81.041015625Z" pointer-events="none" opacity="1"/><g><g class="mark-symbol role-legend-symbol legendSymbol" pointer-events="none"><path transform="translate(7,7)" d="M6.123724356957945,0A6.123724356957945,6.123724356957945,0,1,1,-6.123724356957945,0A6.123724356957945,6.123724356957945,0,1,1,6.123724356957945,0" fill="rgb(237, 121, 83)" stroke="black" stroke-width="1.5" opacity="1"/></g><g class="mark-text role-legend-label legendLabel" pointer-events="none"><text text-anchor="start" transform="translate(18,11)" font-family="sans-serif" font-size="14px" fill="#000" opacity="1">water</text></g></g><path class="foreground" aria-hidden="true" d="" pointer-events="none" display="none"/></g></g></g><path class="foreground" aria-hidden="true" d="" pointer-events="none" display="none"/></g></g><g class="mark-text role-legend-title" pointer-events="none"><text text-anchor="start" transform="translate(0,13)" font-family="sans-serif" font-size="16px" font-weight="bold" fill="#000" opacity="1">sample_type</text></g></g><path class="foreground" aria-hidden="true" d="" pointer-events="none" display="none"/></g></g><g class="mark-group role-title"><g transform="translate(-89.5859375,-73)"><path class="background" aria-hidden="true" d="M0,0h0v0h0Z" pointer-events="none"/><g><g class="mark-text role-title-text" role="graphics-symbol" aria-roledescription="title" aria-label="Title text 'shannon entropy v. braycurtis'" pointer-events="none"><text text-anchor="start" transform="translate(0,16)" font-family="sans-serif" font-size="20px" font-weight="bold" fill="#000" opacity="1">shannon entropy v. braycurtis</text></g><g class="mark-text role-title-subtitle" role="graphics-symbol" aria-roledescription="subtitle" aria-label="Subtitle text ' '" pointer-events="none"><text text-anchor="start" transform="translate(0,59)" font-family="sans-serif" font-size="12px" fill="#000" opacity="1"/></g></g><path class="foreground" aria-hidden="true" d="" pointer-events="none" display="none"/></g></g></g><path class="foreground" aria-hidden="true" d="" display="none"/></g></g></g></svg>