<?xml version="1.0" standalone="no"?>
<svg xmlns="http://www.w3.org/2000/svg" width="250" height="730"><g transform="translate(60,20)"><g class="x axis" transform="translate(0,600)" fill="none" font-size="10" font-family="sans-serif" text-anchor="middle"><path class="domain" stroke="#000" d="M0.5,6V0.5H190.5V6"/><g class="tick" opacity="1" transform="translate(5.471204188481671,0)"><line stroke="#000" y2="6"/><text fill="#000" y="9" dy="-0.5em" dx="-.8em" style="text-anchor: end;" transform="rotate(-90)">ODR-2-1</text></g><g class="tick" opacity="1" transform="translate(15.418848167539265,0)"><line stroke="#000" y2="6"/><text fill="#000" y="9" dy="-0.5em" dx="-.8em" style="text-anchor: end;" transform="rotate(-90)">ODR-2-3</text></g><g class="tick" opacity="1" transform="translate(25.36649214659686,0)"><line stroke="#000" y2="6"/><text fill="#000" y="9" dy="-0.5em" dx="-.8em" style="text-anchor: end;" transform="rotate(-90)">ODR-2-4</text></g><g class="tick" opacity="1" transform="translate(35.31413612565445,0)"><line stroke="#000" y2="6"/><text fill="#000" y="9" dy="-0.5em" dx="-.8em" style="text-anchor: end;" transform="rotate(-90)">ODR-2-2</text></g><g class="tick" opacity="1" transform="translate(45.261780104712045,0)"><line stroke="#000" y2="6"/><text fill="#000" y="9" dy="-0.5em" dx="-.8em" style="text-anchor: end;" transform="rotate(-90)">ODR-3-5</text></g><g class="tick" opacity="1" transform="translate(55.20942408376964,0)"><line stroke="#000" y2="6"/><text fill="#000" y="9" dy="-0.5em" dx="-.8em" style="text-anchor: end;" transform="rotate(-90)">ODR-3-1</text></g><g class="tick" opacity="1" transform="translate(65.15706806282722,0)"><line stroke="#000" y2="6"/><text fill="#000" y="9" dy="-0.5em" dx="-.8em" style="text-anchor: end;" transform="rotate(-90)">ODR-3-2</text></g><g class="tick" opacity="1" transform="translate(75.10471204188482,0)"><line stroke="#000" y2="6"/><text fill="#000" y="9" dy="-0.5em" dx="-.8em" style="text-anchor: end;" transform="rotate(-90)">ODR-3-4</text></g><g class="tick" opacity="1" transform="translate(85.05235602094243,0)"><line stroke="#000" y2="6"/><text fill="#000" y="9" dy="-0.5em" dx="-.8em" style="text-anchor: end;" transform="rotate(-90)">ODR-2-5</text></g><g class="tick" opacity="1" transform="translate(95,0)"><line stroke="#000" y2="6"/><text fill="#000" y="9" dy="-0.5em" dx="-.8em" style="text-anchor: end;" transform="rotate(-90)">ODR-3-3-DW</text></g><g class="tick" opacity="1" transform="translate(104.9476439790576,0)"><line stroke="#000" y2="6"/><text fill="#000" y="9" dy="-0.5em" dx="-.8em" style="text-anchor: end;" transform="rotate(-90)">ODR-3-1-DW</text></g><g class="tick" opacity="1" transform="translate(114.8952879581152,0)"><line stroke="#000" y2="6"/><text fill="#000" y="9" dy="-0.5em" dx="-.8em" style="text-anchor: end;" transform="rotate(-90)">ODR-3-4-DW</text></g><g class="tick" opacity="1" transform="translate(124.84293193717278,0)"><line stroke="#000" y2="6"/><text fill="#000" y="9" dy="-0.5em" dx="-.8em" style="text-anchor: end;" transform="rotate(-90)">ODR-2-2-DW</text></g><g class="tick" opacity="1" transform="translate(134.79057591623038,0)"><line stroke="#000" y2="6"/><text fill="#000" y="9" dy="-0.5em" dx="-.8em" style="text-anchor: end;" transform="rotate(-90)">ODR-2-5-DW</text></g><g class="tick" opacity="1" transform="translate(144.73821989528798,0)"><line stroke="#000" y2="6"/><text fill="#000" y="9" dy="-0.5em" dx="-.8em" style="text-anchor: end;" transform="rotate(-90)">ODR-3-2-DW</text></g><g class="tick" opacity="1" transform="translate(154.68586387434556,0)"><line stroke="#000" y2="6"/><text fill="#000" y="9" dy="-0.5em" dx="-.8em" style="text-anchor: end;" transform="rotate(-90)">ODR-3-5-DW</text></g><g class="tick" opacity="1" transform="translate(164.63350785340316,0)"><line stroke="#000" y2="6"/><text fill="#000" y="9" dy="-0.5em" dx="-.8em" style="text-anchor: end;" transform="rotate(-90)">ODR-2-4-DW</text></g><g class="tick" opacity="1" transform="translate(174.58115183246076,0)"><line stroke="#000" y2="6"/><text fill="#000" y="9" dy="-0.5em" dx="-.8em" style="text-anchor: end;" transform="rotate(-90)">ODR-2-3-DW</text></g><g class="tick" opacity="1" transform="translate(184.52879581151834,0)"><line stroke="#000" y2="6"/><text fill="#000" y="9" dy="-0.5em" dx="-.8em" style="text-anchor: end;" transform="rotate(-90)">ODR-2-1-DW</text></g></g><g class="y axis" fill="none" font-size="10" font-family="sans-serif" text-anchor="end"><path class="domain" stroke="#000" d="M-6,600.5H0.5V0.5H-6"/><g class="tick" opacity="1" transform="translate(0,600.5)"><line stroke="#000" x2="-6"/><text fill="#000" x="-9" dy="0.32em">0%</text></g><g class="tick" opacity="1" transform="translate(0,540.5)"><line stroke="#000" x2="-6"/><text fill="#000" x="-9" dy="0.32em">10%</text></g><g class="tick" opacity="1" transform="translate(0,480.5)"><line stroke="#000" x2="-6"/><text fill="#000" x="-9" dy="0.32em">20%</text></g><g class="tick" opacity="1" transform="translate(0,420.5)"><line stroke="#000" x2="-6"/><text fill="#000" x="-9" dy="0.32em">30%</text></g><g class="tick" opacity="1" transform="translate(0,360.5)"><line stroke="#000" x2="-6"/><text fill="#000" x="-9" dy="0.32em">40%</text></g><g class="tick" opacity="1" transform="translate(0,300.5)"><line stroke="#000" x2="-6"/><text fill="#000" x="-9" dy="0.32em">50%</text></g><g class="tick" opacity="1" transform="translate(0,240.5)"><line stroke="#000" x2="-6"/><text fill="#000" x="-9" dy="0.32em">60%</text></g><g class="tick" opacity="1" transform="translate(0,180.5)"><line stroke="#000" x2="-6"/><text fill="#000" x="-9" dy="0.32em">70%</text></g><g class="tick" opacity="1" transform="translate(0,120.5)"><line stroke="#000" x2="-6"/><text fill="#000" x="-9" dy="0.32em">80%</text></g><g class="tick" opacity="1" transform="translate(0,60.5)"><line stroke="#000" x2="-6"/><text fill="#000" x="-9" dy="0.32em">90%</text></g><g class="tick" opacity="1" transform="translate(0,0.5)"><line stroke="#000" x2="-6"/><text fill="#000" x="-9" dy="0.32em">100%</text></g></g><text id="y-label" text-anchor="middle" style="font: 12px sans-serif;" transform="translate(-30,300)rotate(-90)">Relative Frequency</text><text id="x-label" text-anchor="middle" style="font: 12px sans-serif;" transform="translate(95,690)">Sample</text><g class="layer" style="fill: rgb(127, 201, 127);"><rect x="0.9947643979057545" y="0" height="0" width="8.952879581151834"/><rect x="180.05235602094243" y="0" height="439.80525803310616" width="8.952879581151834"/><rect x="30.837696335078533" y="0" height="1.6492011681841632" width="8.952879581151834"/><rect x="120.36649214659687" y="0" height="366.47152740819587" width="8.952879581151834"/><rect x="10.942408376963348" y="0" height="0" width="8.952879581151834"/><rect x="170.10471204188485" y="0" height="409.0108751941999" width="8.952879581151834"/><rect x="20.89005235602094" y="0" height="0" width="8.952879581151834"/><rect x="160.15706806282725" y="0" height="397.68643859217326" width="8.952879581151834"/><rect x="80.5759162303665" y="0" height="97.37177851492726" width="8.952879581151834"/><rect x="130.31413612565447" y="0" height="370.0217233888486" width="8.952879581151834"/><rect x="50.732984293193724" y="0" height="20.863309352517945" width="8.952879581151834"/><rect x="100.47120418848169" y="0" height="312.5097125097125" width="8.952879581151834"/><rect x="60.68062827225131" y="0" height="52.14953271028037" width="8.952879581151834"/><rect x="140.26178010471207" y="0" height="372.9878048780488" width="8.952879581151834"/><rect x="90.52356020942409" y="0" height="280.8683853459973" width="8.952879581151834"/><rect x="70.62827225130891" y="1.1368683772161603e-13" height="77.41935483870964" width="8.952879581151834"/><rect x="110.41884816753928" y="0" height="355.75221238938053" width="8.952879581151834"/><rect x="40.78534031413613" y="1.1368683772161603e-13" height="16.519823788546205" width="8.952879581151834"/><rect x="150.20942408376965" y="0" height="380.4654011022658" width="8.952879581151834"/></g><g class="layer" style="fill: rgb(240, 2, 127);"><rect x="0.9947643979057545" y="341.7102966841187" height="4.886561954624767" width="8.952879581151834"/><rect x="180.05235602094243" y="504.77117818889974" height="16.24148003894834" width="8.952879581151834"/><rect x="30.837696335078533" y="447.55196701597663" height="0" width="8.952879581151834"/><rect x="120.36649214659687" y="484.3001596593933" height="13.94358701436937" width="8.952879581151834"/><rect x="10.942408376963348" y="246.2654097171864" height="0" width="8.952879581151834"/><rect x="170.10471204188485" y="463.6975660279648" height="24.33972035214913" width="8.952879581151834"/><rect x="20.89005235602094" y="494.2133815551537" height="0" width="8.952879581151834"/><rect x="160.15706806282725" y="483.0420871277381" height="21.41274920009846" width="8.952879581151834"/><rect x="80.5759162303665" y="360.85736157182953" height="29.08905332993112" width="8.952879581151834"/><rect x="130.31413612565447" y="452.42577842143373" height="34.17813178855903" width="8.952879581151834"/><rect x="50.732984293193724" y="88.48920863309348" height="0" width="8.952879581151834"/><rect x="100.47120418848169" y="380.5749805749806" height="10.567210567210509" width="8.952879581151834"/><rect x="60.68062827225131" y="195.1401869158879" height="11.214953271028037" width="8.952879581151834"/><rect x="140.26178010471207" y="513.6585365853658" height="14.81707317073176" width="8.952879581151834"/><rect x="90.52356020942409" y="410.31207598371776" height="19.131614654002703" width="8.952879581151834"/><rect x="70.62827225130891" y="257.41935483870975" height="6.774193548387075" width="8.952879581151834"/><rect x="110.41884816753928" y="457.6025744167337" height="13.515687851970995" width="8.952879581151834"/><rect x="40.78534031413613" y="261.0132158590309" height="0" width="8.952879581151834"/><rect x="150.20942408376965" y="460.5633802816901" height="20.575627679118213" width="8.952879581151834"/></g><g class="layer" style="fill: rgb(255, 255, 153);"><rect x="0.9947643979057545" y="434.5549738219895" height="27.57417102966849" width="8.952879581151834"/><rect x="180.05235602094243" y="565.5306718597858" height="0" width="8.952879581151834"/><rect x="30.837696335078533" y="494.0388249441677" height="23.19189142758978" width="8.952879581151834"/><rect x="120.36649214659687" y="554.3374135178286" height="3.1931878658861024" width="8.952879581151834"/><rect x="10.942408376963348" y="433.3575054387237" height="25.23567802755622" width="8.952879581151834"/><rect x="170.10471204188485" y="532.0559295701709" height="0" width="8.952879581151834"/><rect x="20.89005235602094" y="528.0289330922242" height="20.795660036166396" width="8.952879581151834"/><rect x="160.15706806282725" y="533.2512921486586" height="11.075559931085422" width="8.952879581151834"/><rect x="80.5759162303665" y="482.87828527685633" height="13.93212554223021" width="8.952879581151834"/><rect x="130.31413612565447" y="533.9608979000724" height="14.337436640115925" width="8.952879581151834"/><rect x="50.732984293193724" y="246.0431654676259" height="0" width="8.952879581151834"/><rect x="100.47120418848169" y="528.5159285159285" height="0" width="8.952879581151834"/><rect x="60.68062827225131" y="247.8504672897197" height="0" width="8.952879581151834"/><rect x="140.26178010471207" y="545.670731707317" height="7.134146341463406" width="8.952879581151834"/><rect x="90.52356020942409" y="483.989145183175" height="23.202170963365006" width="8.952879581151834"/><rect x="70.62827225130891" y="485.80645161290323" height="0" width="8.952879581151834"/><rect x="110.41884816753928" y="551.0056315366049" height="0" width="8.952879581151834"/><rect x="40.78534031413613" y="448.0176211453745" height="0" width="8.952879581151834"/><rect x="150.20942408376965" y="520.6368646662584" height="7.1647274954073055" width="8.952879581151834"/></g><g class="layer" style="fill: rgb(56, 108, 176);"><rect x="0.9947643979057545" y="462.129144851658" height="4.188481675392609" width="8.952879581151834"/><rect x="180.05235602094243" y="565.5306718597858" height="9.698149951314463" width="8.952879581151834"/><rect x="30.837696335078533" y="517.2307163717575" height="0" width="8.952879581151834"/><rect x="120.36649214659687" y="557.5306013837147" height="20.010643959553022" width="8.952879581151834"/><rect x="10.942408376963348" y="458.5931834662799" height="13.270485859318342" width="8.952879581151834"/><rect x="170.10471204188485" y="532.0559295701709" height="22.99326773692394" width="8.952879581151834"/><rect x="20.89005235602094" y="548.8245931283906" height="0" width="8.952879581151834"/><rect x="160.15706806282725" y="544.3268520797441" height="19.49298547871024" width="8.952879581151834"/><rect x="80.5759162303665" y="496.81041081908654" height="12.094922174023964" width="8.952879581151834"/><rect x="130.31413612565447" y="548.2983345401883" height="16.07530774800864" width="8.952879581151834"/><rect x="50.732984293193724" y="246.0431654676259" height="0" width="8.952879581151834"/><rect x="100.47120418848169" y="528.5159285159285" height="0" width="8.952879581151834"/><rect x="60.68062827225131" y="247.8504672897197" height="0" width="8.952879581151834"/><rect x="140.26178010471207" y="552.8048780487804" height="0" width="8.952879581151834"/><rect x="90.52356020942409" y="507.19131614654003" height="0" width="8.952879581151834"/><rect x="70.62827225130891" y="485.80645161290323" height="0" width="8.952879581151834"/><rect x="110.41884816753928" y="551.0056315366049" height="0" width="8.952879581151834"/><rect x="40.78534031413613" y="448.0176211453745" height="25.77092511013211" width="8.952879581151834"/><rect x="150.20942408376965" y="527.8015921616657" height="3.306797305572559" width="8.952879581151834"/></g><g class="layer" style="fill: rgb(253, 192, 134);"><rect x="0.9947643979057545" y="138.91797556719024" height="202.79232111692846" width="8.952879581151834"/><rect x="180.05235602094243" y="454.64459591041873" height="4.440116845180114" width="8.952879581151834"/><rect x="30.837696335078533" y="338.39546469678754" height="109.15650231918909" width="8.952879581151834"/><rect x="120.36649214659687" y="411.0697179350718" height="13.092070250133077" width="8.952879581151834"/><rect x="10.942408376963348" y="213.19796954314722" height="33.06744017403918" width="8.952879581151834"/><rect x="170.10471204188485" y="439.4614189539099" height="9.943034697048176" width="8.952879581151834"/><rect x="20.89005235602094" y="393.3092224231465" height="95.11754068716095" width="8.952879581151834"/><rect x="160.15706806282725" y="413.04454836327835" height="14.767413241447173" width="8.952879581151834"/><rect x="80.5759162303665" y="219.69890278132175" height="141.15845879050778" width="8.952879581151834"/><rect x="130.31413612565447" y="384.6488052136133" height="12.889210716871844" width="8.952879581151834"/><rect x="50.732984293193724" y="20.863309352517945" height="0" width="8.952879581151834"/><rect x="100.47120418848169" y="312.5097125097125" height="0" width="8.952879581151834"/><rect x="60.68062827225131" y="52.14953271028037" height="40.93457943925239" width="8.952879581151834"/><rect x="140.26178010471207" y="372.9878048780488" height="0.7317073170731874" width="8.952879581151834"/><rect x="90.52356020942409" y="280.8683853459973" height="0" width="8.952879581151834"/><rect x="70.62827225130891" y="77.41935483870975" height="180" width="8.952879581151834"/><rect x="110.41884816753928" y="355.75221238938053" height="16.894609814963758" width="8.952879581151834"/><rect x="40.78534031413613" y="16.51982378854632" height="108.37004405286342" width="8.952879581151834"/><rect x="150.20942408376965" y="380.4654011022658" height="18.18738518064913" width="8.952879581151834"/></g><g class="layer" style="fill: rgb(191, 91, 23);"><rect x="0.9947643979057545" y="563.0017452006981" height="16.40488656195464" width="8.952879581151834"/><rect x="180.05235602094243" y="588.6660175267771" height="0" width="8.952879581151834"/><rect x="30.837696335078533" y="570.5205291187082" height="7.936780621886214" width="8.952879581151834"/><rect x="120.36649214659687" y="597.019691325173" height="0" width="8.952879581151834"/><rect x="10.942408376963348" y="561.2762871646121" height="21.754894851341533" width="8.952879581151834"/><rect x="170.10471204188485" y="587.4676333505955" height="0" width="8.952879581151834"/><rect x="20.89005235602094" y="583.5443037974684" height="6.69077757685352" width="8.952879581151834"/><rect x="160.15706806282725" y="589.367462466158" height="2.51046025104597" width="8.952879581151834"/><rect x="80.5759162303665" y="578.872161265629" height="1.9903036488900625" width="8.952879581151834"/><rect x="130.31413612565447" y="592.3244026068066" height="0" width="8.952879581151834"/><rect x="50.732984293193724" y="549.6402877697842" height="0" width="8.952879581151834"/><rect x="100.47120418848169" y="587.7233877233878" height="0" width="8.952879581151834"/><rect x="60.68062827225131" y="574.7663551401869" height="0" width="8.952879581151834"/><rect x="140.26178010471207" y="599.4512195121952" height="0" width="8.952879581151834"/><rect x="90.52356020942409" y="592.6729986431479" height="0" width="8.952879581151834"/><rect x="70.62827225130891" y="571.9354838709677" height="0" width="8.952879581151834"/><rect x="110.41884816753928" y="599.0345937248592" height="0" width="8.952879581151834"/><rect x="40.78534031413613" y="590.7488986784141" height="0" width="8.952879581151834"/><rect x="150.20942408376965" y="590.9981628903857" height="0" width="8.952879581151834"/></g><g class="layer" style="fill: rgb(56, 108, 176);"><rect x="0.9947643979057545" y="529.1448516579406" height="20.593368237347363" width="8.952879581151834"/><rect x="180.05235602094243" y="586.9133398247322" height="0" width="8.952879581151834"/><rect x="30.837696335078533" y="548.5655385672565" height="13.296684418484801" width="8.952879581151834"/><rect x="120.36649214659687" y="592.9749866950506" height="0" width="8.952879581151834"/><rect x="10.942408376963348" y="517.5489485134156" height="24.147933284989108" width="8.952879581151834"/><rect x="170.10471204188485" y="582.4961160020715" height="0" width="8.952879581151834"/><rect x="20.89005235602094" y="561.4828209764919" height="12.296564195298288" width="8.952879581151834"/><rect x="160.15706806282725" y="589.367462466158" height="0" width="8.952879581151834"/><rect x="80.5759162303665" y="558.5098239346772" height="10.410819086501647" width="8.952879581151834"/><rect x="130.31413612565447" y="589.7175959449675" height="2.6068066618391867" width="8.952879581151834"/><rect x="50.732984293193724" y="549.6402877697842" height="0" width="8.952879581151834"/><rect x="100.47120418848169" y="587.7233877233878" height="0" width="8.952879581151834"/><rect x="60.68062827225131" y="574.7663551401869" height="0" width="8.952879581151834"/><rect x="140.26178010471207" y="599.4512195121952" height="0" width="8.952879581151834"/><rect x="90.52356020942409" y="592.6729986431479" height="0" width="8.952879581151834"/><rect x="70.62827225130891" y="571.9354838709677" height="0" width="8.952879581151834"/><rect x="110.41884816753928" y="599.0345937248592" height="0" width="8.952879581151834"/><rect x="40.78534031413613" y="590.7488986784141" height="0" width="8.952879581151834"/><rect x="150.20942408376965" y="590.9981628903857" height="0" width="8.952879581151834"/></g><g class="layer" style="fill: rgb(127, 201, 127);"><rect x="0.9947643979057545" y="529.1448516579406" height="0" width="8.952879581151834"/><rect x="180.05235602094243" y="586.9133398247322" height="0" width="8.952879581151834"/><rect x="30.837696335078533" y="517.2307163717575" height="31.334822195498987" width="8.952879581151834"/><rect x="120.36649214659687" y="592.9749866950506" height="0" width="8.952879581151834"/><rect x="10.942408376963348" y="496.0116026105874" height="21.53734590282818" width="8.952879581151834"/><rect x="170.10471204188485" y="573.1745209735889" height="4.764370792335512" width="8.952879581151834"/><rect x="20.89005235602094" y="548.8245931283906" height="12.658227848101319" width="8.952879581151834"/><rect x="160.15706806282725" y="579.6209697268029" height="9.746492739355176" width="8.952879581151834"/><rect x="80.5759162303665" y="539.3722888491963" height="12.707323296759341" width="8.952879581151834"/><rect x="130.31413612565447" y="585.8073859522085" height="3.9102099927589506" width="8.952879581151834"/><rect x="50.732984293193724" y="307.9136690647482" height="0" width="8.952879581151834"/><rect x="100.47120418848169" y="577.933177933178" height="0" width="8.952879581151834"/><rect x="60.68062827225131" y="280.373831775701" height="0" width="8.952879581151834"/><rect x="140.26178010471207" y="589.7560975609756" height="0" width="8.952879581151834"/><rect x="90.52356020942409" y="556.0379918588874" height="0" width="8.952879581151834"/><rect x="70.62827225130891" y="509.0322580645161" height="0" width="8.952879581151834"/><rect x="110.41884816753928" y="578.5197103781175" height="0" width="8.952879581151834"/><rect x="40.78534031413613" y="500.8810572687225" height="0" width="8.952879581151834"/><rect x="150.20942408376965" y="567.2994488671158" height="0" width="8.952879581151834"/></g><g class="layer" style="fill: rgb(190, 174, 212);"><rect x="0.9947643979057545" y="595.1134380453752" height="0" width="8.952879581151834"/><rect x="180.05235602094243" y="588.6660175267771" height="7.010710808179169" width="8.952879581151834"/><rect x="30.837696335078533" y="600" height="0" width="8.952879581151834"/><rect x="120.36649214659687" y="597.019691325173" height="1.8094731240021247" width="8.952879581151834"/><rect x="10.942408376963348" y="600" height="0" width="8.952879581151834"/><rect x="170.10471204188485" y="589.6426721905748" height="4.660797514241381" width="8.952879581151834"/><rect x="20.89005235602094" y="600" height="0" width="8.952879581151834"/><rect x="160.15706806282725" y="591.877922717204" height="2.2151119862171527" width="8.952879581151834"/><rect x="80.5759162303665" y="592.957387088543" height="0" width="8.952879581151834"/><rect x="130.31413612565447" y="592.3244026068066" height="2.8964518464880484" width="8.952879581151834"/><rect x="50.732984293193724" y="576.2589928057554" height="0" width="8.952879581151834"/><rect x="100.47120418848169" y="587.7233877233878" height="0" width="8.952879581151834"/><rect x="60.68062827225131" y="574.7663551401869" height="0" width="8.952879581151834"/><rect x="140.26178010471207" y="599.4512195121952" height="0" width="8.952879581151834"/><rect x="90.52356020942409" y="592.6729986431479" height="0" width="8.952879581151834"/><rect x="70.62827225130891" y="571.9354838709677" height="0" width="8.952879581151834"/><rect x="110.41884816753928" y="599.0345937248592" height="0" width="8.952879581151834"/><rect x="40.78534031413613" y="590.7488986784141" height="0" width="8.952879581151834"/><rect x="150.20942408376965" y="590.9981628903857" height="0" width="8.952879581151834"/></g><g class="layer" style="fill: rgb(102, 102, 102);"><rect x="0.9947643979057545" y="386.7364746945899" height="13.263525305410099" width="8.952879581151834"/><rect x="180.05235602094243" y="530.5939629990263" height="1.7526777020448208" width="8.952879581151834"/><rect x="30.837696335078533" y="452.0872702284831" height="39.78697818244285" width="8.952879581151834"/><rect x="120.36649214659687" y="510.69717935071844" height="6.599254922831278" width="8.952879581151834"/><rect x="10.942408376963348" y="256.92530819434376" height="153.80710659898477" width="8.952879581151834"/><rect x="170.10471204188485" y="497.9803210771621" height="3.5214914552045684" width="8.952879581151834"/><rect x="20.89005235602094" y="504.15913200723327" height="12.296564195298345" width="8.952879581151834"/><rect x="160.15706806282725" y="509.32808269751416" height="0" width="8.952879581151834"/><rect x="80.5759162303665" y="428.68078591477416" height="10.104618525133958" width="8.952879581151834"/><rect x="130.31413612565447" y="502.38957277335265" height="5.937726285300471" width="8.952879581151834"/><rect x="50.732984293193724" y="175.5395683453237" height="0" width="8.952879581151834"/><rect x="100.47120418848169" y="391.1421911421911" height="0" width="8.952879581151834"/><rect x="60.68062827225131" y="238.31775700934588" height="0" width="8.952879581151834"/><rect x="140.26178010471207" y="528.4756097560976" height="0" width="8.952879581151834"/><rect x="90.52356020942409" y="431.4789687924016" height="0" width="8.952879581151834"/><rect x="70.62827225130891" y="334.8387096774194" height="0" width="8.952879581151834"/><rect x="110.41884816753928" y="475.2212389380531" height="0" width="8.952879581151834"/><rect x="40.78534031413613" y="405.7268722466961" height="0" width="8.952879581151834"/><rect x="150.20942408376965" y="484.8132271892223" height="0" width="8.952879581151834"/></g><g class="layer" style="fill: rgb(102, 102, 102);"><rect x="0.9947643979057545" y="579.4066317626528" height="0" width="8.952879581151834"/><rect x="180.05235602094243" y="588.6660175267771" height="0" width="8.952879581151834"/><rect x="30.837696335078533" y="578.4573097405944" height="14.53358529462298" width="8.952879581151834"/><rect x="120.36649214659687" y="597.019691325173" height="0" width="8.952879581151834"/><rect x="10.942408376963348" y="583.0311820159536" height="16.96881798404638" width="8.952879581151834"/><rect x="170.10471204188485" y="587.4676333505955" height="2.1750388399792655" width="8.952879581151834"/><rect x="20.89005235602094" y="590.2350813743219" height="3.6166365280289483" width="8.952879581151834"/><rect x="160.15706806282725" y="591.877922717204" height="0" width="8.952879581151834"/><rect x="80.5759162303665" y="580.862464914519" height="4.439908139831573" width="8.952879581151834"/><rect x="130.31413612565447" y="592.3244026068066" height="0" width="8.952879581151834"/><rect x="50.732984293193724" y="549.6402877697842" height="0" width="8.952879581151834"/><rect x="100.47120418848169" y="587.7233877233878" height="0" width="8.952879581151834"/><rect x="60.68062827225131" y="574.7663551401869" height="0" width="8.952879581151834"/><rect x="140.26178010471207" y="599.4512195121952" height="0" width="8.952879581151834"/><rect x="90.52356020942409" y="592.6729986431479" height="0" width="8.952879581151834"/><rect x="70.62827225130891" y="571.9354838709677" height="0" width="8.952879581151834"/><rect x="110.41884816753928" y="599.0345937248592" height="0" width="8.952879581151834"/><rect x="40.78534031413613" y="590.7488986784141" height="0" width="8.952879581151834"/><rect x="150.20942408376965" y="590.9981628903857" height="0" width="8.952879581151834"/></g><g class="layer" style="fill: rgb(127, 201, 127);"><rect x="0.9947643979057545" y="579.4066317626528" height="15.706806282722482" width="8.952879581151834"/><rect x="180.05235602094243" y="588.6660175267771" height="0" width="8.952879581151834"/><rect x="30.837696335078533" y="592.9908950352174" height="7.009104964782637" width="8.952879581151834"/><rect x="120.36649214659687" y="597.019691325173" height="0" width="8.952879581151834"/><rect x="10.942408376963348" y="600" height="0" width="8.952879581151834"/><rect x="170.10471204188485" y="589.6426721905748" height="0" width="8.952879581151834"/><rect x="20.89005235602094" y="593.8517179023509" height="6.148282097649144" width="8.952879581151834"/><rect x="160.15706806282725" y="591.877922717204" height="0" width="8.952879581151834"/><rect x="80.5759162303665" y="585.3023730543506" height="7.655014034192391" width="8.952879581151834"/><rect x="130.31413612565447" y="592.3244026068066" height="0" width="8.952879581151834"/><rect x="50.732984293193724" y="549.6402877697842" height="26.618705035971175" width="8.952879581151834"/><rect x="100.47120418848169" y="587.7233877233878" height="0" width="8.952879581151834"/><rect x="60.68062827225131" y="574.7663551401869" height="0" width="8.952879581151834"/><rect x="140.26178010471207" y="599.4512195121952" height="0" width="8.952879581151834"/><rect x="90.52356020942409" y="592.6729986431479" height="0" width="8.952879581151834"/><rect x="70.62827225130891" y="571.9354838709677" height="0" width="8.952879581151834"/><rect x="110.41884816753928" y="599.0345937248592" height="0" width="8.952879581151834"/><rect x="40.78534031413613" y="590.7488986784141" height="0" width="8.952879581151834"/><rect x="150.20942408376965" y="590.9981628903857" height="0" width="8.952879581151834"/></g><g class="layer" style="fill: rgb(191, 91, 23);"><rect x="0.9947643979057545" y="492.14659685863876" height="36.99825479930189" width="8.952879581151834"/><rect x="180.05235602094243" y="580.9542356377799" height="5.959104186952345" width="8.952879581151834"/><rect x="30.837696335078533" y="517.2307163717575" height="0" width="8.952879581151834"/><rect x="120.36649214659687" y="583.8211814795104" height="9.15380521554016" width="8.952879581151834"/><rect x="10.942408376963348" y="482.95866569978244" height="13.052936910804931" width="8.952879581151834"/><rect x="170.10471204188485" y="559.0885551527706" height="14.085965820818274" width="8.952879581151834"/><rect x="20.89005235602094" y="548.8245931283906" height="0" width="8.952879581151834"/><rect x="160.15706806282725" y="565.2965788825991" height="14.324390844203776" width="8.952879581151834"/><rect x="80.5759162303665" y="517.0196478693545" height="22.352640979841794" width="8.952879581151834"/><rect x="130.31413612565447" y="571.3251267197683" height="14.482259232440242" width="8.952879581151834"/><rect x="50.732984293193724" y="246.0431654676259" height="0" width="8.952879581151834"/><rect x="100.47120418848169" y="539.2385392385393" height="0" width="8.952879581151834"/><rect x="60.68062827225131" y="280.373831775701" height="0" width="8.952879581151834"/><rect x="140.26178010471207" y="572.560975609756" height="0" width="8.952879581151834"/><rect x="90.52356020942409" y="538.5345997286296" height="0" width="8.952879581151834"/><rect x="70.62827225130891" y="509.0322580645161" height="0" width="8.952879581151834"/><rect x="110.41884816753928" y="557.5221238938053" height="0" width="8.952879581151834"/><rect x="40.78534031413613" y="473.7885462555066" height="0" width="8.952879581151834"/><rect x="150.20942408376965" y="543.7844458052664" height="0" width="8.952879581151834"/></g><g class="layer" style="fill: rgb(191, 91, 23);"><rect x="0.9947643979057545" y="346.59685863874347" height="40.13961605584643" width="8.952879581151834"/><rect x="180.05235602094243" y="521.0126582278481" height="9.581304771178225" width="8.952879581151834"/><rect x="30.837696335078533" y="447.55196701597663" height="4.535303212506449" width="8.952879581151834"/><rect x="120.36649214659687" y="498.24374667376264" height="12.4534326769558" width="8.952879581151834"/><rect x="10.942408376963348" y="246.2654097171864" height="10.659898477157356" width="8.952879581151834"/><rect x="170.10471204188485" y="488.0372863801139" height="9.943034697048176" width="8.952879581151834"/><rect x="20.89005235602094" y="494.2133815551537" height="9.945750452079551" width="8.952879581151834"/><rect x="160.15706806282725" y="504.4548363278366" height="4.873246369677588" width="8.952879581151834"/><rect x="80.5759162303665" y="389.94641490176065" height="38.734371013013515" width="8.952879581151834"/><rect x="130.31413612565447" y="486.60391020999276" height="15.785662563359892" width="8.952879581151834"/><rect x="50.732984293193724" y="88.48920863309348" height="87.0503597122302" width="8.952879581151834"/><rect x="100.47120418848169" y="391.1421911421911" height="0" width="8.952879581151834"/><rect x="60.68062827225131" y="206.35514018691595" height="31.962616822429936" width="8.952879581151834"/><rect x="140.26178010471207" y="528.4756097560976" height="0" width="8.952879581151834"/><rect x="90.52356020942409" y="429.44369063772047" height="2.035278154681123" width="8.952879581151834"/><rect x="70.62827225130891" y="264.1935483870968" height="70.64516129032256" width="8.952879581151834"/><rect x="110.41884816753928" y="471.1182622687047" height="4.102976669348379" width="8.952879581151834"/><rect x="40.78534031413613" y="261.0132158590309" height="144.7136563876652" width="8.952879581151834"/><rect x="150.20942408376965" y="481.1390079608083" height="3.6742192284139605" width="8.952879581151834"/></g><g class="layer" style="fill: rgb(127, 201, 127);"><rect x="0.9947643979057545" y="400" height="27.574171029668435" width="8.952879581151834"/><rect x="180.05235602094243" y="532.3466407010711" height="26.75754625121715" width="8.952879581151834"/><rect x="30.837696335078533" y="491.87424841092593" height="0" width="8.952879581151834"/><rect x="120.36649214659687" y="517.2964342735497" height="29.90952634379994" width="8.952879581151834"/><rect x="10.942408376963348" y="410.73241479332853" height="9.789702683103656" width="8.952879581151834"/><rect x="170.10471204188485" y="501.50181253236667" height="19.886069394096353" width="8.952879581151834"/><rect x="20.89005235602094" y="516.4556962025316" height="11.573236889692566" width="8.952879581151834"/><rect x="160.15706806282725" y="509.32808269751416" height="16.24415456559194" width="8.952879581151834"/><rect x="80.5759162303665" y="438.7854044399081" height="24.342944628731857" width="8.952879581151834"/><rect x="130.31413612565447" y="508.3272990586531" height="16.075307748008754" width="8.952879581151834"/><rect x="50.732984293193724" y="175.5395683453237" height="0" width="8.952879581151834"/><rect x="100.47120418848169" y="391.1421911421911" height="0" width="8.952879581151834"/><rect x="60.68062827225131" y="238.31775700934588" height="0" width="8.952879581151834"/><rect x="140.26178010471207" y="528.4756097560976" height="0" width="8.952879581151834"/><rect x="90.52356020942409" y="431.4789687924016" height="0" width="8.952879581151834"/><rect x="70.62827225130891" y="334.8387096774194" height="48.38709677419354" width="8.952879581151834"/><rect x="110.41884816753928" y="475.2212389380531" height="22.445695897023313" width="8.952879581151834"/><rect x="40.78534031413613" y="405.7268722466961" height="0" width="8.952879581151834"/><rect x="150.20942408376965" y="484.8132271892223" height="0" width="8.952879581151834"/></g><g class="layer" style="fill: rgb(253, 192, 134);"><rect x="0.9947643979057545" y="434.5549738219895" height="0" width="8.952879581151834"/><rect x="180.05235602094243" y="565.5306718597858" height="0" width="8.952879581151834"/><rect x="30.837696335078533" y="494.0388249441677" height="0" width="8.952879581151834"/><rect x="120.36649214659687" y="554.3374135178286" height="0" width="8.952879581151834"/><rect x="10.942408376963348" y="433.3575054387237" height="0" width="8.952879581151834"/><rect x="170.10471204188485" y="532.0559295701709" height="0" width="8.952879581151834"/><rect x="20.89005235602094" y="528.0289330922242" height="0" width="8.952879581151834"/><rect x="160.15706806282725" y="533.2512921486586" height="0" width="8.952879581151834"/><rect x="80.5759162303665" y="482.87828527685633" height="0" width="8.952879581151834"/><rect x="130.31413612565447" y="533.9608979000724" height="0" width="8.952879581151834"/><rect x="50.732984293193724" y="175.5395683453237" height="70.50359712230221" width="8.952879581151834"/><rect x="100.47120418848169" y="391.1421911421911" height="137.3737373737374" width="8.952879581151834"/><rect x="60.68062827225131" y="247.8504672897197" height="0" width="8.952879581151834"/><rect x="140.26178010471207" y="538.9024390243902" height="6.768292682926813" width="8.952879581151834"/><rect x="90.52356020942409" y="479.5115332428765" height="4.477611940298516" width="8.952879581151834"/><rect x="70.62827225130891" y="485.80645161290323" height="0" width="8.952879581151834"/><rect x="110.41884816753928" y="535.8004827031376" height="15.20514883346732" width="8.952879581151834"/><rect x="40.78534031413613" y="448.0176211453745" height="0" width="8.952879581151834"/><rect x="150.20942408376965" y="509.24678505817513" height="11.390079608083227" width="8.952879581151834"/></g><g class="layer" style="fill: rgb(190, 174, 212);"><rect x="0.9947643979057545" y="0" height="138.91797556719024" width="8.952879581151834"/><rect x="180.05235602094243" y="439.80525803310616" height="14.839337877312573" width="8.952879581151834"/><rect x="30.837696335078533" y="1.6492011681841632" height="336.7462635286034" width="8.952879581151834"/><rect x="120.36649214659687" y="366.47152740819587" height="44.59819052687595" width="8.952879581151834"/><rect x="10.942408376963348" y="0" height="213.19796954314722" width="8.952879581151834"/><rect x="170.10471204188485" y="409.0108751941999" height="30.45054375971" width="8.952879581151834"/><rect x="20.89005235602094" y="0" height="393.3092224231465" width="8.952879581151834"/><rect x="160.15706806282725" y="397.68643859217326" height="15.358109771105092" width="8.952879581151834"/><rect x="80.5759162303665" y="97.37177851492726" height="122.32712426639449" width="8.952879581151834"/><rect x="130.31413612565447" y="370.0217233888486" height="14.627081824764673" width="8.952879581151834"/><rect x="50.732984293193724" y="20.863309352517945" height="0" width="8.952879581151834"/><rect x="100.47120418848169" y="312.5097125097125" height="0" width="8.952879581151834"/><rect x="60.68062827225131" y="52.14953271028037" height="0" width="8.952879581151834"/><rect x="140.26178010471207" y="372.9878048780488" height="0" width="8.952879581151834"/><rect x="90.52356020942409" y="280.8683853459973" height="0" width="8.952879581151834"/><rect x="70.62827225130891" y="77.41935483870975" height="0" width="8.952879581151834"/><rect x="110.41884816753928" y="355.75221238938053" height="0" width="8.952879581151834"/><rect x="40.78534031413613" y="16.51982378854632" height="0" width="8.952879581151834"/><rect x="150.20942408376965" y="380.4654011022658" height="0" width="8.952879581151834"/></g><g class="layer" style="fill: rgb(255, 255, 153);"><rect x="0.9947643979057545" y="529.1448516579406" height="0" width="8.952879581151834"/><rect x="180.05235602094243" y="586.9133398247322" height="0" width="8.952879581151834"/><rect x="30.837696335078533" y="548.5655385672565" height="0" width="8.952879581151834"/><rect x="120.36649214659687" y="592.9749866950506" height="0" width="8.952879581151834"/><rect x="10.942408376963348" y="517.5489485134156" height="0" width="8.952879581151834"/><rect x="170.10471204188485" y="577.9388917659244" height="4.557224236147135" width="8.952879581151834"/><rect x="20.89005235602094" y="561.4828209764919" height="0" width="8.952879581151834"/><rect x="160.15706806282725" y="589.367462466158" height="0" width="8.952879581151834"/><rect x="80.5759162303665" y="552.0796121459556" height="6.4302117887216355" width="8.952879581151834"/><rect x="130.31413612565447" y="589.7175959449675" height="0" width="8.952879581151834"/><rect x="50.732984293193724" y="549.6402877697842" height="0" width="8.952879581151834"/><rect x="100.47120418848169" y="581.8181818181819" height="5.905205905205889" width="8.952879581151834"/><rect x="60.68062827225131" y="559.0654205607476" height="15.700934579439263" width="8.952879581151834"/><rect x="140.26178010471207" y="589.7560975609756" height="9.695121951219562" width="8.952879581151834"/><rect x="90.52356020942409" y="575.1696065128901" height="17.503392130257794" width="8.952879581151834"/><rect x="70.62827225130891" y="536.1290322580645" height="35.806451612903174" width="8.952879581151834"/><rect x="110.41884816753928" y="578.5197103781175" height="20.514883346741726" width="8.952879581151834"/><rect x="40.78534031413613" y="547.136563876652" height="43.61233480176213" width="8.952879581151834"/><rect x="150.20942408376965" y="584.7519902020821" height="6.246172688303659" width="8.952879581151834"/></g><g class="layer" style="fill: rgb(240, 2, 127);"><rect x="0.9947643979057545" y="600" height="0" width="8.952879581151834"/><rect x="180.05235602094243" y="599.0652385589094" height="0.7010710808179965" width="8.952879581151834"/><rect x="30.837696335078533" y="600" height="0" width="8.952879581151834"/><rect x="120.36649214659687" y="600" height="0" width="8.952879581151834"/><rect x="10.942408376963348" y="600" height="0" width="8.952879581151834"/><rect x="170.10471204188485" y="596.9963749352667" height="3.003625064733342" width="8.952879581151834"/><rect x="20.89005235602094" y="600" height="0" width="8.952879581151834"/><rect x="160.15706806282725" y="597.194191484125" height="2.8058085158750146" width="8.952879581151834"/><rect x="80.5759162303665" y="596.937994386323" height="3.0620056136770017" width="8.952879581151834"/><rect x="130.31413612565447" y="596.3794351918899" height="3.620564808110089" width="8.952879581151834"/><rect x="50.732984293193724" y="595.68345323741" height="0" width="8.952879581151834"/><rect x="100.47120418848169" y="599.0675990675991" height="0" width="8.952879581151834"/><rect x="60.68062827225131" y="600" height="0" width="8.952879581151834"/><rect x="140.26178010471207" y="599.4512195121952" height="0" width="8.952879581151834"/><rect x="90.52356020942409" y="599.5929443690637" height="0" width="8.952879581151834"/><rect x="70.62827225130891" y="600" height="0" width="8.952879581151834"/><rect x="110.41884816753928" y="599.0345937248592" height="0" width="8.952879581151834"/><rect x="40.78534031413613" y="600" height="0" width="8.952879581151834"/><rect x="150.20942408376965" y="597.9791794243723" height="0" width="8.952879581151834"/></g><g class="layer" style="fill: rgb(240, 2, 127);"><rect x="0.9947643979057545" y="549.738219895288" height="13.263525305410099" width="8.952879581151834"/><rect x="180.05235602094243" y="586.9133398247322" height="1.7526777020448208" width="8.952879581151834"/><rect x="30.837696335078533" y="561.8622229857413" height="8.658306132966914" width="8.952879581151834"/><rect x="120.36649214659687" y="592.9749866950506" height="4.044704630122396" width="8.952879581151834"/><rect x="10.942408376963348" y="541.6968817984047" height="19.579405366207425" width="8.952879581151834"/><rect x="170.10471204188485" y="582.4961160020715" height="4.971517348524003" width="8.952879581151834"/><rect x="20.89005235602094" y="573.7793851717902" height="9.764918625678206" width="8.952879581151834"/><rect x="160.15706806282725" y="589.367462466158" height="0" width="8.952879581151834"/><rect x="80.5759162303665" y="568.9206430211789" height="9.951518244450085" width="8.952879581151834"/><rect x="130.31413612565447" y="592.3244026068066" height="0" width="8.952879581151834"/><rect x="50.732984293193724" y="549.6402877697842" height="0" width="8.952879581151834"/><rect x="100.47120418848169" y="587.7233877233878" height="0" width="8.952879581151834"/><rect x="60.68062827225131" y="574.7663551401869" height="0" width="8.952879581151834"/><rect x="140.26178010471207" y="599.4512195121952" height="0" width="8.952879581151834"/><rect x="90.52356020942409" y="592.6729986431479" height="0" width="8.952879581151834"/><rect x="70.62827225130891" y="571.9354838709677" height="0" width="8.952879581151834"/><rect x="110.41884816753928" y="599.0345937248592" height="0" width="8.952879581151834"/><rect x="40.78534031413613" y="590.7488986784141" height="0" width="8.952879581151834"/><rect x="150.20942408376965" y="590.9981628903857" height="0" width="8.952879581151834"/></g><g class="layer" style="fill: rgb(56, 108, 176);"><rect x="0.9947643979057545" y="341.7102966841187" height="0" width="8.952879581151834"/><rect x="180.05235602094243" y="483.62220058422594" height="21.148977604673803" width="8.952879581151834"/><rect x="30.837696335078533" y="447.55196701597663" height="0" width="8.952879581151834"/><rect x="120.36649214659687" y="474.08195848855775" height="10.218201170835528" width="8.952879581151834"/><rect x="10.942408376963348" y="246.2654097171864" height="0" width="8.952879581151834"/><rect x="170.10471204188485" y="457.37959606421543" height="6.317969963749363" width="8.952879581151834"/><rect x="20.89005235602094" y="488.42676311030743" height="5.786618444846283" width="8.952879581151834"/><rect x="160.15706806282725" y="457.6421363524489" height="25.3999507752892" width="8.952879581151834"/><rect x="80.5759162303665" y="360.85736157182953" height="0" width="8.952879581151834"/><rect x="130.31413612565447" y="433.454018826937" height="18.971759594496746" width="8.952879581151834"/><rect x="50.732984293193724" y="74.10071942446041" height="14.388489208633075" width="8.952879581151834"/><rect x="100.47120418848169" y="337.68453768453764" height="42.890442890442955" width="8.952879581151834"/><rect x="60.68062827225131" y="195.1401869158879" height="0" width="8.952879581151834"/><rect x="140.26178010471207" y="453.6585365853658" height="60" width="8.952879581151834"/><rect x="90.52356020942409" y="338.6702849389416" height="71.64179104477614" width="8.952879581151834"/><rect x="70.62827225130891" y="257.41935483870975" height="0" width="8.952879581151834"/><rect x="110.41884816753928" y="422.3652453740949" height="35.237329042638805" width="8.952879581151834"/><rect x="40.78534031413613" y="229.2951541850221" height="31.718061674008766" width="8.952879581151834"/><rect x="150.20942408376965" y="428.2302510716473" height="32.33312921004284" width="8.952879581151834"/></g><g class="layer" style="fill: rgb(240, 2, 127);"><rect x="0.9947643979057545" y="466.3176265270506" height="25.828970331588152" width="8.952879581151834"/><rect x="180.05235602094243" y="575.2288218111003" height="5.725413826679642" width="8.952879581151834"/><rect x="30.837696335078533" y="517.2307163717575" height="0" width="8.952879581151834"/><rect x="120.36649214659687" y="577.5412453432677" height="6.279936136242668" width="8.952879581151834"/><rect x="10.942408376963348" y="471.86366932559827" height="11.094996374184177" width="8.952879581151834"/><rect x="170.10471204188485" y="555.0491973070948" height="4.039357845675795" width="8.952879581151834"/><rect x="20.89005235602094" y="548.8245931283906" height="0" width="8.952879581151834"/><rect x="160.15706806282725" y="563.8198375584543" height="1.4767413241447684" width="8.952879581151834"/><rect x="80.5759162303665" y="508.9053329931105" height="8.114314876243952" width="8.952879581151834"/><rect x="130.31413612565447" y="564.373642288197" height="6.951484431571316" width="8.952879581151834"/><rect x="50.732984293193724" y="246.0431654676259" height="0" width="8.952879581151834"/><rect x="100.47120418848169" y="528.5159285159285" height="10.722610722610739" width="8.952879581151834"/><rect x="60.68062827225131" y="247.8504672897197" height="32.52336448598129" width="8.952879581151834"/><rect x="140.26178010471207" y="552.8048780487804" height="19.756097560975604" width="8.952879581151834"/><rect x="90.52356020942409" y="507.19131614654003" height="31.343283582089555" width="8.952879581151834"/><rect x="70.62827225130891" y="485.80645161290323" height="23.22580645161287" width="8.952879581151834"/><rect x="110.41884816753928" y="551.0056315366049" height="6.516492357200377" width="8.952879581151834"/><rect x="40.78534031413613" y="473.7885462555066" height="0" width="8.952879581151834"/><rect x="150.20942408376965" y="531.1083894672382" height="12.676056338028161" width="8.952879581151834"/></g><g class="layer" style="fill: rgb(190, 174, 212);"><rect x="0.9947643979057545" y="427.57417102966843" height="6.980802792321072" width="8.952879581151834"/><rect x="180.05235602094243" y="559.1041869522883" height="6.4264849074975245" width="8.952879581151834"/><rect x="30.837696335078533" y="491.87424841092593" height="2.164576533241757" width="8.952879581151834"/><rect x="120.36649214659687" y="547.2059606173497" height="7.131452900478962" width="8.952879581151834"/><rect x="10.942408376963348" y="420.5221174764322" height="12.83538796229152" width="8.952879581151834"/><rect x="170.10471204188485" y="521.387881926463" height="10.668047643707837" width="8.952879581151834"/><rect x="20.89005235602094" y="528.0289330922242" height="0" width="8.952879581151834"/><rect x="160.15706806282725" y="525.5722372631061" height="7.679054885552546" width="8.952879581151834"/><rect x="80.5759162303665" y="463.12834906864" height="19.749936208216354" width="8.952879581151834"/><rect x="130.31413612565447" y="524.4026068066619" height="9.558291093410503" width="8.952879581151834"/><rect x="50.732984293193724" y="175.5395683453237" height="0" width="8.952879581151834"/><rect x="100.47120418848169" y="391.1421911421911" height="0" width="8.952879581151834"/><rect x="60.68062827225131" y="238.31775700934588" height="9.532710280373806" width="8.952879581151834"/><rect x="140.26178010471207" y="528.4756097560976" height="10.426829268292636" width="8.952879581151834"/><rect x="90.52356020942409" y="431.4789687924016" height="48.03256445047492" width="8.952879581151834"/><rect x="70.62827225130891" y="383.2258064516129" height="102.5806451612903" width="8.952879581151834"/><rect x="110.41884816753928" y="497.6669348350764" height="38.133547868061214" width="8.952879581151834"/><rect x="40.78534031413613" y="405.7268722466961" height="42.29074889867843" width="8.952879581151834"/><rect x="150.20942408376965" y="484.8132271892223" height="24.433557868952846" width="8.952879581151834"/></g><g class="layer" style="fill: rgb(253, 192, 134);"><rect x="0.9947643979057545" y="595.1134380453752" height="4.886561954624767" width="8.952879581151834"/><rect x="180.05235602094243" y="595.6767283349562" height="3.388510223953176" width="8.952879581151834"/><rect x="30.837696335078533" y="600" height="0" width="8.952879581151834"/><rect x="120.36649214659687" y="598.8291644491751" height="1.1708355508249042" width="8.952879581151834"/><rect x="10.942408376963348" y="600" height="0" width="8.952879581151834"/><rect x="170.10471204188485" y="594.3034697048162" height="2.692905230450492" width="8.952879581151834"/><rect x="20.89005235602094" y="600" height="0" width="8.952879581151834"/><rect x="160.15706806282725" y="594.0930347034212" height="3.101156780703832" width="8.952879581151834"/><rect x="80.5759162303665" y="592.957387088543" height="3.9806072977800113" width="8.952879581151834"/><rect x="130.31413612565447" y="595.2208544532947" height="1.1585807385952194" width="8.952879581151834"/><rect x="50.732984293193724" y="576.2589928057554" height="0" width="8.952879581151834"/><rect x="100.47120418848169" y="587.7233877233878" height="0" width="8.952879581151834"/><rect x="60.68062827225131" y="574.7663551401869" height="0" width="8.952879581151834"/><rect x="140.26178010471207" y="599.4512195121952" height="0" width="8.952879581151834"/><rect x="90.52356020942409" y="592.6729986431479" height="0" width="8.952879581151834"/><rect x="70.62827225130891" y="571.9354838709677" height="0" width="8.952879581151834"/><rect x="110.41884816753928" y="599.0345937248592" height="0" width="8.952879581151834"/><rect x="40.78534031413613" y="590.7488986784141" height="0" width="8.952879581151834"/><rect x="150.20942408376965" y="590.9981628903857" height="0" width="8.952879581151834"/></g><g class="layer" style="fill: rgb(102, 102, 102);"><rect x="0.9947643979057545" y="529.1448516579406" height="0" width="8.952879581151834"/><rect x="180.05235602094243" y="586.9133398247322" height="0" width="8.952879581151834"/><rect x="30.837696335078533" y="517.2307163717575" height="0" width="8.952879581151834"/><rect x="120.36649214659687" y="592.9749866950506" height="0" width="8.952879581151834"/><rect x="10.942408376963348" y="496.0116026105874" height="0" width="8.952879581151834"/><rect x="170.10471204188485" y="573.1745209735889" height="0" width="8.952879581151834"/><rect x="20.89005235602094" y="548.8245931283906" height="0" width="8.952879581151834"/><rect x="160.15706806282725" y="579.6209697268029" height="0" width="8.952879581151834"/><rect x="80.5759162303665" y="539.3722888491963" height="0" width="8.952879581151834"/><rect x="130.31413612565447" y="585.8073859522085" height="0" width="8.952879581151834"/><rect x="50.732984293193724" y="246.0431654676259" height="61.87050359712231" width="8.952879581151834"/><rect x="100.47120418848169" y="539.2385392385393" height="38.694638694638684" width="8.952879581151834"/><rect x="60.68062827225131" y="280.373831775701" height="0" width="8.952879581151834"/><rect x="140.26178010471207" y="572.560975609756" height="17.195121951219562" width="8.952879581151834"/><rect x="90.52356020942409" y="538.5345997286296" height="17.503392130257794" width="8.952879581151834"/><rect x="70.62827225130891" y="509.0322580645161" height="0" width="8.952879581151834"/><rect x="110.41884816753928" y="557.5221238938053" height="20.997586484312137" width="8.952879581151834"/><rect x="40.78534031413613" y="473.7885462555066" height="27.09251101321587" width="8.952879581151834"/><rect x="150.20942408376965" y="543.7844458052664" height="23.51500306184937" width="8.952879581151834"/></g><g class="layer" style="fill: rgb(255, 255, 153);"><rect x="0.9947643979057545" y="341.7102966841187" height="0" width="8.952879581151834"/><rect x="180.05235602094243" y="459.08471275559884" height="24.537487828627093" width="8.952879581151834"/><rect x="30.837696335078533" y="447.55196701597663" height="0" width="8.952879581151834"/><rect x="120.36649214659687" y="424.1617881852049" height="49.92017030335285" width="8.952879581151834"/><rect x="10.942408376963348" y="246.2654097171864" height="0" width="8.952879581151834"/><rect x="170.10471204188485" y="449.4044536509581" height="7.975142413257345" width="8.952879581151834"/><rect x="20.89005235602094" y="488.42676311030743" height="0" width="8.952879581151834"/><rect x="160.15706806282725" y="427.8119616047255" height="29.83017474772339" width="8.952879581151834"/><rect x="80.5759162303665" y="360.85736157182953" height="0" width="8.952879581151834"/><rect x="130.31413612565447" y="397.53801593048513" height="35.91600289645186" width="8.952879581151834"/><rect x="50.732984293193724" y="20.863309352517945" height="53.23741007194246" width="8.952879581151834"/><rect x="100.47120418848169" y="312.5097125097125" height="25.174825174825173" width="8.952879581151834"/><rect x="60.68062827225131" y="93.08411214953276" height="102.05607476635515" width="8.952879581151834"/><rect x="140.26178010471207" y="373.719512195122" height="79.93902439024384" width="8.952879581151834"/><rect x="90.52356020942409" y="280.8683853459973" height="57.801899592944324" width="8.952879581151834"/><rect x="70.62827225130891" y="257.41935483870975" height="0" width="8.952879581151834"/><rect x="110.41884816753928" y="372.6468222043443" height="49.71842316975062" width="8.952879581151834"/><rect x="40.78534031413613" y="124.88986784140974" height="104.40528634361237" width="8.952879581151834"/><rect x="150.20942408376965" y="398.6527862829149" height="29.577464788732357" width="8.952879581151834"/></g><g class="layer" style="fill: rgb(255, 255, 153);"><rect x="0.9947643979057545" y="600" height="0" width="8.952879581151834"/><rect x="180.05235602094243" y="599.0652385589094" height="0" width="8.952879581151834"/><rect x="30.837696335078533" y="600" height="0" width="8.952879581151834"/><rect x="120.36649214659687" y="600" height="0" width="8.952879581151834"/><rect x="10.942408376963348" y="600" height="0" width="8.952879581151834"/><rect x="170.10471204188485" y="596.9963749352667" height="0" width="8.952879581151834"/><rect x="20.89005235602094" y="600" height="0" width="8.952879581151834"/><rect x="160.15706806282725" y="597.194191484125" height="0" width="8.952879581151834"/><rect x="80.5759162303665" y="596.937994386323" height="0" width="8.952879581151834"/><rect x="130.31413612565447" y="596.3794351918899" height="0" width="8.952879581151834"/><rect x="50.732984293193724" y="576.2589928057554" height="9.352517985611485" width="8.952879581151834"/><rect x="100.47120418848169" y="587.7233877233878" height="6.993006993006929" width="8.952879581151834"/><rect x="60.68062827225131" y="574.7663551401869" height="6.728971962616811" width="8.952879581151834"/><rect x="140.26178010471207" y="599.4512195121952" height="0" width="8.952879581151834"/><rect x="90.52356020942409" y="592.6729986431479" height="6.919945725915795" width="8.952879581151834"/><rect x="70.62827225130891" y="571.9354838709677" height="15.48387096774195" width="8.952879581151834"/><rect x="110.41884816753928" y="599.0345937248592" height="0" width="8.952879581151834"/><rect x="40.78534031413613" y="590.7488986784141" height="3.964757709251103" width="8.952879581151834"/><rect x="150.20942408376965" y="590.9981628903857" height="3.123086344151943" width="8.952879581151834"/></g><g class="layer" style="fill: rgb(56, 108, 176);"><rect x="0.9947643979057545" y="600" height="0" width="8.952879581151834"/><rect x="180.05235602094243" y="599.0652385589094" height="0" width="8.952879581151834"/><rect x="30.837696335078533" y="600" height="0" width="8.952879581151834"/><rect x="120.36649214659687" y="600" height="0" width="8.952879581151834"/><rect x="10.942408376963348" y="600" height="0" width="8.952879581151834"/><rect x="170.10471204188485" y="596.9963749352667" height="0" width="8.952879581151834"/><rect x="20.89005235602094" y="600" height="0" width="8.952879581151834"/><rect x="160.15706806282725" y="597.194191484125" height="0" width="8.952879581151834"/><rect x="80.5759162303665" y="596.937994386323" height="0" width="8.952879581151834"/><rect x="130.31413612565447" y="596.3794351918899" height="0" width="8.952879581151834"/><rect x="50.732984293193724" y="585.6115107913669" height="10.071942446043181" width="8.952879581151834"/><rect x="100.47120418848169" y="594.7163947163947" height="4.351204351204387" width="8.952879581151834"/><rect x="60.68062827225131" y="581.4953271028037" height="18.504672897196315" width="8.952879581151834"/><rect x="140.26178010471207" y="599.4512195121952" height="0" width="8.952879581151834"/><rect x="90.52356020942409" y="599.5929443690637" height="0" width="8.952879581151834"/><rect x="70.62827225130891" y="587.4193548387096" height="12.580645161290363" width="8.952879581151834"/><rect x="110.41884816753928" y="599.0345937248592" height="0" width="8.952879581151834"/><rect x="40.78534031413613" y="594.7136563876652" height="5.286343612334804" width="8.952879581151834"/><rect x="150.20942408376965" y="594.1212492345377" height="3.857930189834633" width="8.952879581151834"/></g><g class="layer" style="fill: rgb(190, 174, 212);"><rect x="0.9947643979057545" y="529.1448516579406" height="0" width="8.952879581151834"/><rect x="180.05235602094243" y="586.9133398247322" height="0" width="8.952879581151834"/><rect x="30.837696335078533" y="548.5655385672565" height="0" width="8.952879581151834"/><rect x="120.36649214659687" y="592.9749866950506" height="0" width="8.952879581151834"/><rect x="10.942408376963348" y="517.5489485134156" height="0" width="8.952879581151834"/><rect x="170.10471204188485" y="577.9388917659244" height="0" width="8.952879581151834"/><rect x="20.89005235602094" y="561.4828209764919" height="0" width="8.952879581151834"/><rect x="160.15706806282725" y="589.367462466158" height="0" width="8.952879581151834"/><rect x="80.5759162303665" y="552.0796121459556" height="0" width="8.952879581151834"/><rect x="130.31413612565447" y="589.7175959449675" height="0" width="8.952879581151834"/><rect x="50.732984293193724" y="307.9136690647482" height="161.15107913669067" width="8.952879581151834"/><rect x="100.47120418848169" y="577.933177933178" height="3.8850038850039255" width="8.952879581151834"/><rect x="60.68062827225131" y="280.373831775701" height="105.4205607476635" width="8.952879581151834"/><rect x="140.26178010471207" y="589.7560975609756" height="0" width="8.952879581151834"/><rect x="90.52356020942409" y="556.0379918588874" height="15.46811397557667" width="8.952879581151834"/><rect x="70.62827225130891" y="509.0322580645161" height="27.096774193548413" width="8.952879581151834"/><rect x="110.41884816753928" y="578.5197103781175" height="0" width="8.952879581151834"/><rect x="40.78534031413613" y="500.8810572687225" height="29.73568281938327" width="8.952879581151834"/><rect x="150.20942408376965" y="567.2994488671158" height="10.65523576240048" width="8.952879581151834"/></g><g class="layer" style="fill: rgb(253, 192, 134);"><rect x="0.9947643979057545" y="529.1448516579406" height="0" width="8.952879581151834"/><rect x="180.05235602094243" y="586.9133398247322" height="0" width="8.952879581151834"/><rect x="30.837696335078533" y="548.5655385672565" height="0" width="8.952879581151834"/><rect x="120.36649214659687" y="592.9749866950506" height="0" width="8.952879581151834"/><rect x="10.942408376963348" y="517.5489485134156" height="0" width="8.952879581151834"/><rect x="170.10471204188485" y="577.9388917659244" height="0" width="8.952879581151834"/><rect x="20.89005235602094" y="561.4828209764919" height="0" width="8.952879581151834"/><rect x="160.15706806282725" y="589.367462466158" height="0" width="8.952879581151834"/><rect x="80.5759162303665" y="552.0796121459556" height="0" width="8.952879581151834"/><rect x="130.31413612565447" y="589.7175959449675" height="0" width="8.952879581151834"/><rect x="50.732984293193724" y="469.0647482014389" height="80.57553956834533" width="8.952879581151834"/><rect x="100.47120418848169" y="581.8181818181819" height="0" width="8.952879581151834"/><rect x="60.68062827225131" y="385.7943925233645" height="173.27102803738313" width="8.952879581151834"/><rect x="140.26178010471207" y="589.7560975609756" height="0" width="8.952879581151834"/><rect x="90.52356020942409" y="571.506105834464" height="3.6635006784260895" width="8.952879581151834"/><rect x="70.62827225130891" y="536.1290322580645" height="0" width="8.952879581151834"/><rect x="110.41884816753928" y="578.5197103781175" height="0" width="8.952879581151834"/><rect x="40.78534031413613" y="530.6167400881058" height="16.519823788546205" width="8.952879581151834"/><rect x="150.20942408376965" y="577.9546846295162" height="6.797305572565847" width="8.952879581151834"/></g><g class="layer" style="fill: rgb(191, 91, 23);"><rect x="0.9947643979057545" y="600" height="0" width="8.952879581151834"/><rect x="180.05235602094243" y="599.7663096397274" height="0.23369036027258971" width="8.952879581151834"/><rect x="30.837696335078533" y="600" height="0" width="8.952879581151834"/><rect x="120.36649214659687" y="600" height="0" width="8.952879581151834"/><rect x="10.942408376963348" y="600" height="0" width="8.952879581151834"/><rect x="170.10471204188485" y="600" height="0" width="8.952879581151834"/><rect x="20.89005235602094" y="600" height="0" width="8.952879581151834"/><rect x="160.15706806282725" y="600" height="0" width="8.952879581151834"/><rect x="80.5759162303665" y="600" height="0" width="8.952879581151834"/><rect x="130.31413612565447" y="600" height="0" width="8.952879581151834"/><rect x="50.732984293193724" y="595.68345323741" height="4.316546762589951" width="8.952879581151834"/><rect x="100.47120418848169" y="599.0675990675991" height="0.9324009324009239" width="8.952879581151834"/><rect x="60.68062827225131" y="600" height="0" width="8.952879581151834"/><rect x="140.26178010471207" y="599.4512195121952" height="0.5487804878048337" width="8.952879581151834"/><rect x="90.52356020942409" y="599.5929443690637" height="0.40705563093627006" width="8.952879581151834"/><rect x="70.62827225130891" y="600" height="0" width="8.952879581151834"/><rect x="110.41884816753928" y="599.0345937248592" height="0.9654062751408219" width="8.952879581151834"/><rect x="40.78534031413613" y="600" height="0" width="8.952879581151834"/><rect x="150.20942408376965" y="597.9791794243723" height="2.020820575627681" width="8.952879581151834"/></g></g></svg>